<?xml version="1.0" encoding="UTF-8" standalone="no"?>
<!-- Created with Inkscape (http://www.inkscape.org/) -->

<svg
   xmlns:dc="http://purl.org/dc/elements/1.1/"
   xmlns:cc="http://creativecommons.org/ns#"
   xmlns:rdf="http://www.w3.org/1999/02/22-rdf-syntax-ns#"
   xmlns:svg="http://www.w3.org/2000/svg"
   xmlns="http://www.w3.org/2000/svg"
   xmlns:sodipodi="http://sodipodi.sourceforge.net/DTD/sodipodi-0.dtd"
   xmlns:inkscape="http://www.inkscape.org/namespaces/inkscape"
   id="MainTitleSVG"
   width="400"
   height="400"
   viewBox="0 0 400 400"
   version="1.1"
   sodipodi:docname="Title.svg"
   inkscape:version="0.92.0 r15299">
  <metadata
     id="metadata3696">
    <rdf:RDF>
      <cc:Work
         rdf:about="">
        <dc:format>image/svg+xml</dc:format>
        <dc:type
           rdf:resource="http://purl.org/dc/dcmitype/StillImage" />
      </cc:Work>
    </rdf:RDF>
  </metadata>
  <defs
     id="defs3694" />
  <sodipodi:namedview
     pagecolor="#ffffff"
     bordercolor="#666666"
     borderopacity="1"
     objecttolerance="10"
     gridtolerance="10"
     guidetolerance="10"
     inkscape:pageopacity="0"
     inkscape:pageshadow="2"
     inkscape:window-width="1280"
     inkscape:window-height="961"
     id="namedview3692"
     showgrid="false"
     inkscape:zoom="22.627417"
     inkscape:cx="12.960431"
     inkscape:cy="387.06539"
     inkscape:window-x="-8"
     inkscape:window-y="12"
     inkscape:window-maximized="1"
     inkscape:current-layer="MainTitleSVG" />
  <g
     id="LetterB">
    <path
       class="parts part-2"
       d="m 6.4288127,5.1598991 q 1.13291,0.28576 1.19965,1.54163 0.0413,0.7761 -0.31166,1.36503 -0.35317,0.5842402 -0.87131,0.6110102 -0.56603,0.0293 -0.83811,-0.48965 0.0782,-0.0889 0.41245,-0.2901602 0.0368,0.0358 0.047,0.0636 0.12515,0.4651902 0.51702,0.4449402 0.31349,-0.0162 0.50885,-0.3658902 0.1951,-0.35439 0.16535,-0.91412 -0.0388,-0.72906 -0.4367,-1.15185 -0.39385,-0.42771 -1.00342,-0.39621 l -0.0219,-0.0838 q 0.36185,-0.17434 0.56391,-0.56211 0.20642,-0.38799 0.18442,-0.8019 -0.0323,-0.60677 -0.49041,-1.0123 -0.45381,-0.40575 -1.07645,-0.37357 -0.93178,0.0482 -1.64169,0.82062 -0.70555,0.77223 -0.65656,1.69414 0.0235,0.44214 0.22523,0.70528 0.20147,0.25843 0.49755,0.24313 0.34833,-0.018 0.62052,-0.56504 l 0.0944,0.0517 q -0.11273,0.42559 -0.36198,0.66487 -0.24925,0.23927 -0.5671,0.2557 -0.34397,0.0178 -0.57233,-0.25341 -0.22399,-0.27142 -0.24774,-0.71827 -0.0388,-0.72905 0.35306,-1.4898 0.39181,-0.76074 1.08214,-1.24449 0.69443,-0.48867 1.47817,-0.52917 0.70972,-0.0367 1.15382,0.35071 0.4482,0.38246 0.4837,1.05037 0.04,0.75258 -0.48994,1.37896 z"
       style="font-style:normal;font-variant:normal;font-weight:normal;font-stretch:normal;font-size:29.73661041px;line-height:18.58538246px;font-family:'French Script MT';-inkscape-font-specification:'French Script MT, Normal';font-variant-ligatures:normal;font-variant-caps:normal;font-variant-numeric:normal;font-feature-settings:normal;text-align:start;letter-spacing:0px;word-spacing:0px;writing-mode:lr-tb;text-anchor:start;display:inline;fill:#000000;fill-opacity:1;stroke:none;stroke-width:0.23202309"
       inkscape:connector-curvature="0"
       id="path4585" />
    <path
       class="parts part-1"
       d="m 5.6416227,3.3281191 q -0.27369,0.51881 -0.24169,1.12088 0.017,0.31984 0.14368,0.97833 0.13104,0.65825 0.14904,0.99692 0.052,0.97834 -0.44395,1.66901 -0.49596,0.6906602 -1.27099,0.7307102 -0.50508,0.0261 -0.85734,-0.27642 -0.35227,-0.30252 -0.44858,-0.8823902 0.23298,-0.13467 0.55914,-0.24114 l 0.0209,0.0649 q -0.0861,0.18839 -0.0753,0.39065 0.0165,0.3104402 0.25977,0.5336902 0.24327,0.22325 0.5916,0.20525 0.5312,-0.0275 0.86634,-0.5400002 0.3395,-0.51278 0.29575,-1.33591 -0.0138,-0.2587 -0.0843,-0.76444 -0.0705,-0.50574 -0.0838,-0.75504 -0.0647,-1.21823 0.54602,-1.96671 z"
       style="font-style:normal;font-variant:normal;font-weight:normal;font-stretch:normal;font-size:29.73661041px;line-height:18.58538246px;font-family:'French Script MT';-inkscape-font-specification:'French Script MT, Normal';font-variant-ligatures:normal;font-variant-caps:normal;font-variant-numeric:normal;font-feature-settings:normal;text-align:start;letter-spacing:0px;word-spacing:0px;writing-mode:lr-tb;text-anchor:start;display:inline;opacity:0;fill:#00b100;fill-opacity:1;stroke:none;stroke-width:0.23202309"
       inkscape:connector-curvature="0"
       id="path4587" />
    <g
       class="draw-parts"
       id="g4568">
      <path
         d="M 2.7537091,7.6400606 C 2.885846,8.0563583 2.9091608,8.1821605 3.0763448,8.3659256 3.3548315,8.6720323 3.6835074,8.76971 4.018947,8.7265102 4.3614758,8.6823974 4.7235313,8.5374778 4.9539928,8.2802631 5.1544068,8.0565841 5.3506068,7.7888472 5.4565017,7.4974019 5.5751636,7.1708194 5.5863211,6.8107673 5.5878866,6.4632988 5.5891149,6.1906564 5.5300785,5.9209787 5.4921103,5.6509902 5.4436196,5.3061776 5.3209073,4.9682569 5.3235583,4.6200614 c 0.00348,-0.456595 0.241584,-1.3483536 0.241584,-1.3483536"
         style="opacity:1;fill:none;stroke:#000000;stroke-width:0.2;stroke-linecap:butt;stroke-linejoin:miter;stroke-miterlimit:4;stroke-dasharray:none;stroke-opacity:1"
         class="draw"
         id="path4503"
         inkscape:connector-curvature="0" />
      <path
         d="m 2.9611745,7.5667105 c 0,0 -0.036326,0.6292918 0.177182,0.7992151 C 3.3898222,8.5660579 3.6978594,8.7874619 4.018947,8.7265102 4.5599668,8.623809 5.0060443,8.1252857 5.2609352,7.6371458 5.4586121,7.2585759 5.409776,6.7909381 5.4037212,6.363908 5.4002072,6.1160721 5.3246387,5.8742308 5.2999348,5.6276041 5.2661267,5.2900865 5.2090959,4.9496537 5.2392853,4.6117932 5.28066,4.1487531 5.5679127,3.2564091 5.5679127,3.2564091"
         style="opacity:1;fill:none;fill-opacity:1;stroke:#000000;stroke-width:0.2;stroke-linecap:butt;stroke-linejoin:miter;stroke-miterlimit:4;stroke-dasharray:none;stroke-opacity:1"
         class="draw main"
         id="path4523"
         inkscape:connector-curvature="0" />
      <path
         id="path4501"
         class="draw"
         d="m 3.1181144,7.4986916 c 0.053743,0.05607 0.00785,0.097017 0.011234,0.1455654 0.011777,0.1691308 -0.022454,0.3921627 0.031525,0.5076431 0.078405,0.1677373 0.1582863,0.287558 0.2903792,0.3738875 0.1880569,0.1229045 0.4314925,0.1995586 0.65347,0.1649656 C 4.419223,8.6417414 4.7036637,8.4239158 4.9155417,8.1863861 5.0379706,8.0491351 5.1025103,7.8649536 5.1517752,7.6877541 5.2462602,7.3479042 5.2728517,6.9957817 5.25732,6.6348111 5.2382047,6.1905528 5.1725165,5.9490818 5.1425944,5.6049796 5.1199922,5.3450558 5.063578,5.0829577 5.0936809,4.8237955 5.1154641,4.6362594 5.131197,4.3568288 5.1941295,4.132717 5.2799838,3.8269773 5.5679127,3.2564091 5.5679127,3.2564091"
         style="opacity:1;fill:none;stroke:#000000;stroke-width:0.15000001;stroke-linecap:butt;stroke-linejoin:miter;stroke-miterlimit:4;stroke-dasharray:none;stroke-opacity:1"
         inkscape:connector-curvature="0" />
      <path
         style="opacity:1;fill:none;stroke:#000000;stroke-width:0.15000001;stroke-linecap:butt;stroke-linejoin:miter;stroke-miterlimit:4;stroke-dasharray:none;stroke-opacity:1"
         d="M 2.691324,7.7237529 3.1796876,7.5039062 v 0"
         class="start"
         inkscape:connector-curvature="0"
         id="path4493" />
      <path
         style="opacity:1;fill:#00000;fill-opacity:1;fill-rule:evenodd;stroke:none;stroke-width:0.52466911;stroke-linecap:butt;stroke-linejoin:miter;stroke-miterlimit:4;stroke-dasharray:none;stroke-dashoffset:0;stroke-opacity:1;paint-order:fill markers stroke"
         d="M 3.2518327,7.774173 A 0.21181254,0.27698563 0 0 1 3.0400202,8.0511586 0.21181254,0.27698563 0 0 1 2.8282076,7.774173 0.21181254,0.27698563 0 0 1 3.0400202,7.4971874 0.21181254,0.27698563 0 0 1 3.2518327,7.774173 Z"
         id="circle"
         class="draw marker"
         inkscape:connector-curvature="0" />
    </g>
    <g
       class="draw-parts"
       id="g4578">
      <path
         style="fill:none;stroke:#000000;stroke-width:0.18897638;stroke-linecap:butt;stroke-linejoin:miter;stroke-miterlimit:4;stroke-dasharray:none;stroke-opacity:1"
         d="m 4.1169527,5.6943791 c 0,0 -0.414097,0.7796578 -0.7802925,0.8227946 C 3.142146,6.5400869 2.8897154,6.5423651 2.7536753,6.3980254 2.4331154,6.0579086 2.360837,5.4365712 2.5274711,4.9237561 2.7153347,4.3456077 2.835133,3.9738075 3.1568406,3.6101541 3.6253945,3.0805079 4.2427512,2.5583531 4.9439847,2.4670324 5.5200612,2.3920108 6.3289028,2.4869507 6.603704,2.9987872 6.7874757,3.341075 6.8797954,3.8378807 6.8167689,4.2593375 6.759968,4.639164 6.5303665,4.8103752 6.3008071,5.2894997 6.8663008,5.205283 7.2869142,5.7381706 7.5035485,6.1896469 7.7453956,6.6936677 7.6937146,7.3640188 7.4473096,7.8658271 7.2662833,8.2344905 6.9065751,8.6081188 6.4981608,8.6514898 6.1653048,8.6868371 5.5667751,8.2885895 5.6073827,8.1879193"
         class="draw"
         inkscape:connector-curvature="0"
         sodipodi:nodetypes="csssaasacaaac"
         id="path4570" />
      <path
         sodipodi:nodetypes="caaaaaaacaaaac"
         inkscape:connector-curvature="0"
         class="draw"
         d="m 4.1169527,5.6943791 c 0,0 -0.4280989,0.5664878 -0.7471469,0.6570664 C 3.1837865,6.404257 2.9336872,6.392038 2.7978695,6.2543943 2.4878051,5.9401615 2.5399902,5.3840207 2.5937624,4.9458532 2.6526167,4.466273 2.8306831,3.9666402 3.1568406,3.6101541 3.6261161,3.0972417 4.3102971,2.725893 4.9992274,2.6327606 5.451709,2.5715923 6.0059554,2.6151646 6.3362984,2.9303703 6.6657082,3.2446857 6.7521683,3.796555 6.6952349,4.248289 6.6355838,4.7215864 6.2178665,5.0135002 5.9883071,5.4926247 6.2328738,5.4562024 6.5157806,5.420675 6.7328057,5.5421627 7.0792282,5.7360852 7.3181733,6.1305453 7.4215172,6.5138657 7.5324953,6.925502 7.499195,7.407307 7.3066846,7.7877021 7.1458542,8.1054984 6.8597358,8.4538511 6.5059733,8.4952398 6.2434425,8.5259548 5.7659939,8.2221833 5.8066015,8.121513"
         style="fill:none;stroke:#000000;stroke-width:0.18897638;stroke-linecap:butt;stroke-linejoin:miter;stroke-miterlimit:4;stroke-dasharray:none;stroke-opacity:1"
         id="path4572" />
      <path
         style="fill:none;stroke:#000000;stroke-width:0.18897638;stroke-linecap:butt;stroke-linejoin:miter;stroke-miterlimit:4;stroke-dasharray:none;stroke-opacity:1"
         d="m 4.1169527,5.6943791 c 0,0 -0.3441148,0.5112802 -0.6182406,0.5750352 C 3.2968581,6.3163604 3.0478135,6.2389112 2.9033383,6.0903318 2.6278284,5.8069952 2.5638624,5.3399234 2.5937624,4.9458532 2.630152,4.4662571 2.8474336,3.9766868 3.1763719,3.6257791 3.6509473,3.1195073 4.3307715,2.7170813 5.0226649,2.6640106 5.4379008,2.6321605 5.9063511,2.7760212 6.205774,3.065471 6.5007734,3.3506445 6.6741964,3.8081181 6.6405474,4.217039 6.5998749,4.7113136 6.0390684,5.3537691 5.8945571,5.5043435 c 0.3945512,0.072449 0.5509893,0.050265 0.7679361,0.2018817 0.2883372,0.2015091 0.524448,0.5232921 0.602774,0.8662342 0.090914,0.3980564 0.095648,0.8584337 0.010167,1.2035239 C 7.1897961,8.1217101 6.8464784,8.4226319 6.5137858,8.421021 6.2694127,8.4198378 5.9183377,8.0424958 5.9589453,7.9418255"
         class="draw"
         inkscape:connector-curvature="0"
         sodipodi:nodetypes="caaaaaaacassac"
         id="path4574" />
      <path
         sodipodi:nodetypes="caaaaaaacassac"
         inkscape:connector-curvature="0"
         class="draw"
         d="m 4.0225527,5.6426791 c 0,0 -0.2630281,0.5485632 -0.5238406,0.6267352 C 3.3001959,6.3289145 3.0478135,6.2389112 2.9033383,6.0903318 2.6278284,5.8069952 2.5638624,5.3399234 2.5937624,4.9458532 2.630152,4.4662571 2.8474336,3.9766868 3.1763719,3.6257791 3.6509473,3.1195073 4.3297201,2.7008944 5.0226649,2.6640106 c 0.4111862,-0.021886 0.856725,0.1621039 1.1499635,0.4511788 0.2726663,0.268795 0.454882,0.6808274 0.4347734,1.0631797 -0.026355,0.5011215 -0.5683334,1.1754 -0.7128447,1.3259744 0.3945512,0.072449 0.5529975,0.047431 0.7679361,0.2018817 0.2806399,0.2016623 0.4913024,0.5232921 0.5696284,0.8662342 0.090914,0.3980564 0.1287939,0.8584337 0.043313,1.2035239 C 7.1897961,8.1217101 6.8464784,8.4226318 6.5137858,8.421021 6.2694127,8.4198378 5.9183377,8.0424958 5.9589453,7.9418255"
         style="fill:none;stroke:#000000;stroke-width:0.18897638;stroke-linecap:butt;stroke-linejoin:miter;stroke-miterlimit:4;stroke-dasharray:none;stroke-opacity:1"
         id="path4576" />
      <path
         style="fill:none;stroke:#000000;stroke-width:0.13382474;stroke-linecap:butt;stroke-linejoin:miter;stroke-miterlimit:4;stroke-dasharray:none;stroke-opacity:1;opacity:1"
         d="M 5.5273438,8.1914063 5.9997373,7.908645 6.0198327,7.8977591"
         class="end"
         inkscape:connector-curvature="0"
         id="path4500" />
    </g>
  </g>
  <g
     id="Lettera"
     transform="matrix(0.3645,0,0,0.3645,4.2370502,2.8896984)">
    <path
       d="m 21.943115,12.548303 q -1.707861,3.261333 -3.501621,3.354031 -0.674717,0.03487 -0.99172,-0.340932 -0.317003,-0.375788 -0.399597,-1.61936 -0.917473,1.366547 -1.58786,1.793374 -0.652985,0.443753 -1.52518,0.488827 -1.267151,0.06548 -2.074226,-0.837599 -0.790618,-0.903932 -0.874708,-2.486129 l -0.04063,-0.764426 q -0.167793,0.258241 -0.771254,1.32335 L 9.6115255,13.078618 q 1.3196755,-2.492573 2.8432035,-3.9439191 1.539041,-1.4699866 2.740365,-1.5320688 0.855738,-0.044223 1.72431,0.463499 l 1.405655,-0.8748201 0.321242,6.044322 q 0.05102,0.95998 0.143698,1.151282 0.09268,0.191302 0.454718,0.172592 0.312674,-0.01616 0.905897,-0.652902 0.593223,-0.636757 1.274241,-1.795005 z m -4.997659,0.04435 -0.189911,-3.5732677 Q 16.058548,8.3245341 15.136983,8.3721589 14.149594,8.4231853 13.412592,9.4595418 12.67559,10.495898 12.754011,11.97143 q 0.06803,1.279977 0.665342,1.962155 0.596369,0.664401 1.567302,0.614225 0.756999,-0.03912 1.356286,-0.872269 0.614798,-0.851777 0.602515,-1.082886 z"
       style="font-style:normal;font-variant:normal;font-weight:normal;font-stretch:normal;font-size:29.73661041px;line-height:18.58538246px;font-family:'French Script MT';-inkscape-font-specification:'French Script MT, Normal';font-variant-ligatures:normal;font-variant-caps:normal;font-variant-numeric:normal;font-feature-settings:normal;text-align:start;letter-spacing:0px;word-spacing:0px;writing-mode:lr-tb;text-anchor:start;display:inline;fill:#000000;fill-opacity:1;stroke:none;stroke-width:0.87693769"
       class="parts part-1"
       inkscape:connector-curvature="0"
       id="path4504" />
  </g>
  <path
     style="fill:none;stroke:#c70000;stroke-width:0.18897638;stroke-linecap:butt;stroke-linejoin:miter;stroke-miterlimit:4;stroke-dasharray:none;stroke-opacity:1"
     d="M 7.7404512,7.6568547 C 8.053825,7.505971 9.4340427,6.9679754 10.673935,6.4911535 11.277449,6.259062 10.450736,7.5217504 9.5591794,8.7365967 8.7951586,9.7776614 7.9835192,10.783593 7.9835192,10.783593"
     id="path4508"
     inkscape:connector-curvature="0"
     sodipodi:nodetypes="cssc" />
</svg>
