<?xml version="1.0" encoding="UTF-8" standalone="no"?>
<!-- Created with Inkscape (http://www.inkscape.org/) -->

<svg
   xmlns:dc="http://purl.org/dc/elements/1.1/"
   xmlns:cc="http://creativecommons.org/ns#"
   xmlns:rdf="http://www.w3.org/1999/02/22-rdf-syntax-ns#"
   xmlns:svg="http://www.w3.org/2000/svg"
   xmlns="http://www.w3.org/2000/svg"
   xmlns:sodipodi="http://sodipodi.sourceforge.net/DTD/sodipodi-0.dtd"
   xmlns:inkscape="http://www.inkscape.org/namespaces/inkscape"
   width="210mm"
   height="297mm"
   viewBox="0 0 210 297"
   version="1.1"
   id="svg5483"
   inkscape:version="0.92.0 r15299"
   sodipodi:docname="Title.svg">
  <defs
     id="defs5477">
    <marker
       inkscape:stockid="StopL"
       orient="auto"
       refY="0.0"
       refX="0.0"
       id="StopL"
       style="overflow:visible"
       inkscape:isstock="true">
      <path
         id="path4677"
         d="M 0.0,5.65 L 0.0,-5.65"
         style="fill:none;fill-opacity:0.75;fill-rule:evenodd;stroke:#cf0000;stroke-width:1pt;stroke-opacity:1"
         transform="scale(0.8)" />
    </marker>
    <marker
       inkscape:stockid="Arrow1Lstart"
       orient="auto"
       refY="0.0"
       refX="0.0"
       id="marker4800"
       style="overflow:visible"
       inkscape:isstock="true">
      <path
         id="path4798"
         d="M 0.0,0.0 L 5.0,-5.0 L -12.5,0.0 L 5.0,5.0 L 0.0,0.0 z "
         style="fill-rule:evenodd;stroke:#cf0000;stroke-width:1pt;stroke-opacity:1;fill:#cf0000;fill-opacity:1"
         transform="scale(0.8) translate(12.5,0)" />
    </marker>
    <marker
       inkscape:stockid="SquareL"
       orient="auto"
       refY="0.0"
       refX="0.0"
       id="SquareL"
       style="overflow:visible"
       inkscape:isstock="true">
      <path
         id="path4578"
         d="M -5.0,-5.0 L -5.0,5.0 L 5.0,5.0 L 5.0,-5.0 L -5.0,-5.0 z "
         style="fill-rule:evenodd;stroke:#cf0000;stroke-width:1pt;stroke-opacity:1;fill:#cf0000;fill-opacity:1"
         transform="scale(0.8)" />
    </marker>
    <marker
       inkscape:stockid="Arrow1Lstart"
       orient="auto"
       refY="0.0"
       refX="0.0"
       id="Arrow1Lstart"
       style="overflow:visible"
       inkscape:isstock="true">
      <path
         id="path4508"
         d="M 0.0,0.0 L 5.0,-5.0 L -12.5,0.0 L 5.0,5.0 L 0.0,0.0 z "
         style="fill-rule:evenodd;stroke:#cf0000;stroke-width:1pt;stroke-opacity:1;fill:#cf0000;fill-opacity:1"
         transform="scale(0.8) translate(12.5,0)" />
    </marker>
  </defs>
  <sodipodi:namedview
     id="base"
     pagecolor="#ffffff"
     bordercolor="#666666"
     borderopacity="1.0"
     inkscape:pageopacity="0.0"
     inkscape:pageshadow="2"
     inkscape:zoom="31.678384"
     inkscape:cx="20.886786"
     inkscape:cy="1070.1529"
     inkscape:document-units="mm"
     inkscape:current-layer="Title"
     showgrid="false"
     inkscape:window-width="1600"
     inkscape:window-height="837"
     inkscape:window-x="-8"
     inkscape:window-y="-8"
     inkscape:window-maximized="1" />
  <metadata
     id="metadata5480">
    <rdf:RDF>
      <cc:Work
         rdf:about="">
        <dc:format>image/svg+xml</dc:format>
        <dc:type
           rdf:resource="http://purl.org/dc/dcmitype/StillImage" />
        <dc:title />
      </cc:Work>
    </rdf:RDF>
  </metadata>
  <g
     inkscape:label="Title"
     inkscape:groupmode="layer"
     id="Title">
    <path
       d="m 6.4288127,5.1598991 q 1.13291,0.28576 1.19965,1.54163 0.0413,0.7761 -0.31166,1.36503 -0.35317,0.5842402 -0.87131,0.6110102 -0.56603,0.0293 -0.83811,-0.48965 0.0782,-0.0889 0.41245,-0.2901602 0.0368,0.0358 0.047,0.0636 0.12515,0.4651902 0.51702,0.4449402 0.31349,-0.0162 0.50885,-0.3658902 0.1951,-0.35439 0.16535,-0.91412 -0.0388,-0.72906 -0.4367,-1.15185 -0.39385,-0.42771 -1.00342,-0.39621 l -0.0219,-0.0838 q 0.36185,-0.17434 0.56391,-0.56211 0.20642,-0.38799 0.18442,-0.8019 -0.0323,-0.60677 -0.49041,-1.0123 -0.45381,-0.40575 -1.07645,-0.37357 -0.93178,0.0482 -1.64169,0.82062 -0.70555,0.77223 -0.65656,1.69414 0.0235,0.44214 0.22523,0.70528 0.20147,0.25843 0.49755,0.24313 0.34833,-0.018 0.62052,-0.56504 l 0.0944,0.0517 q -0.11273,0.42559 -0.36198,0.66487 -0.24925,0.23927 -0.5671,0.2557 -0.34397,0.0178 -0.57233,-0.25341 -0.22399,-0.27142 -0.24774,-0.71827 -0.0388,-0.72905 0.35306,-1.4898 0.39181,-0.76074 1.08214,-1.24449 0.69443,-0.48867 1.47817,-0.52917 0.70972,-0.0367 1.15382,0.35071 0.4482,0.38246 0.4837,1.05037 0.04,0.75258 -0.48994,1.37896 z m -0.78719,-1.83178 q -0.27369,0.51881 -0.24169,1.12088 0.017,0.31984 0.14368,0.97833 0.13104,0.65825 0.14904,0.99692 0.052,0.97834 -0.44395,1.66901 -0.49596,0.6906602 -1.27099,0.7307102 -0.50508,0.0261 -0.85734,-0.27642 -0.35227,-0.30252 -0.44858,-0.8823902 0.23298,-0.13467 0.55914,-0.24114 l 0.0209,0.0649 q -0.0861,0.18839 -0.0753,0.39065 0.0165,0.3104402 0.25977,0.5336902 0.24327,0.22325 0.5916,0.20525 0.5312,-0.0275 0.86634,-0.5400002 0.3395,-0.51278 0.29575,-1.33591 -0.0138,-0.2587 -0.0843,-0.76444 -0.0705,-0.50574 -0.0838,-0.75504 -0.0647,-1.21823 0.54602,-1.96671 z"
       style="font-style:normal;font-variant:normal;font-weight:normal;font-stretch:normal;font-size:29.73661041px;line-height:18.58538246px;font-family:'French Script MT';-inkscape-font-specification:'French Script MT, Normal';font-variant-ligatures:normal;font-variant-caps:normal;font-variant-numeric:normal;font-feature-settings:normal;text-align:start;letter-spacing:0px;word-spacing:0px;writing-mode:lr-tb;text-anchor:start;display:inline;fill:#000000;fill-opacity:1;stroke:none;stroke-width:0.23202309"
       id="LetterB1"
       inkscape:connector-curvature="0" />
    <path
       d="m 11.128633,7.2935991 q -0.45187,0.8628902 -0.92647,0.8874202 -0.17852,0.009 -0.2623901,-0.0902 -0.0839,-0.0994 -0.10573,-0.42846 -0.24275,0.36157 -0.4201202,0.4745002 -0.17277,0.11741 -0.40354,0.12933 -0.33527,0.0173 -0.5488,-0.2216102 -0.20919,-0.23917 -0.23144,-0.65779 l -0.0108,-0.20226 q -0.0444,0.0683 -0.20406,0.35014 l -0.14943,-0.10076 q 0.34916,-0.65949 0.75226,-1.04349 0.40721,-0.38894 0.72506,-0.40536 0.2264102,-0.0117 0.4562202,0.12263 l 0.3719101,-0.23146 0.085,1.59922 q 0.0135,0.254 0.038,0.30461 0.0245,0.0506 0.12031,0.0457 0.0827,-0.004 0.23968,-0.17275 0.15696,-0.16847 0.33715,-0.47493 z m -1.3223001,0.0117 -0.0502,-0.94542 q -0.18442,-0.18385 -0.4282502,-0.17125 -0.26125,0.0135 -0.45624,0.2877 -0.195,0.27421 -0.17425,0.66461 0.018,0.33866 0.17603,0.51915 0.15779,0.17579 0.41469,0.16252 0.2002902,-0.0104 0.3588502,-0.23079 0.16266,-0.22537 0.15941,-0.28652 z"
       style="font-style:normal;font-variant:normal;font-weight:normal;font-stretch:normal;font-size:29.73661041px;line-height:18.58538246px;font-family:'French Script MT';-inkscape-font-specification:'French Script MT, Normal';font-variant-ligatures:normal;font-variant-caps:normal;font-variant-numeric:normal;font-feature-settings:normal;text-align:start;letter-spacing:0px;word-spacing:0px;writing-mode:lr-tb;text-anchor:start;display:inline;fill:#000000;fill-opacity:1;stroke:none;stroke-width:0.23202309"
       id="path6052"
       inkscape:connector-curvature="0" />
    <path
       d="m 11.128633,7.2935991 q 0.076,-0.13127 0.13554,-0.24283 0.0637,-0.11649 0.12583,-0.2612 0.0619,-0.14941 0.1324,-0.38416 0.0746,-0.23968 0.0706,-0.31494 l -0.0967,-1.8203 q -0.0357,-0.67261 0.32712,-1.23848 0.36287,-0.56587 0.78958,-0.58793 0.22641,-0.0117 0.36168,0.15111 0.13962,0.16258 0.15462,0.4448 0.02,0.37629 -0.23337,1.03083 -0.25363,0.64983 -0.87623,1.83284 l 0.0722,1.35935 q 0.0155,0.29162 0.043,0.39868 0.0273,0.10235 0.1187,0.0976 0.19594,-0.0101 0.5986,-0.6488 l 0.14148,0.11532 q -0.47364,0.86402 -0.98307,0.89034 -0.1524,0.008 -0.23652,-0.0963 -0.0844,-0.10883 -0.10537,-0.50394 l -0.0455,-0.85605 q -0.11523,0.37856 -0.35337,0.74461 z m 0.87276,-1.73362 q 0.52846,-1.06495 0.68658,-1.54005 0.16223,-0.48004 0.14398,-0.82341 -0.028,-0.5268 -0.32843,-0.51127 -0.27431,0.0142 -0.44814,0.35803 -0.16948,0.34363 -0.13898,0.91747 z"
       style="font-style:normal;font-variant:normal;font-weight:normal;font-stretch:normal;font-size:29.73661041px;line-height:18.58538246px;font-family:'French Script MT';-inkscape-font-specification:'French Script MT, Normal';font-variant-ligatures:normal;font-variant-caps:normal;font-variant-numeric:normal;font-feature-settings:normal;text-align:start;letter-spacing:0px;word-spacing:0px;writing-mode:lr-tb;text-anchor:start;display:inline;fill:#000000;fill-opacity:1;stroke:none;stroke-width:0.23202309"
       id="LetterL"
       inkscape:connector-curvature="0" />
    <path
       d="m 12.993693,7.2255191 q 0.076,-0.13128 0.13554,-0.24283 0.0637,-0.11649 0.12583,-0.2612 0.0619,-0.14941 0.1324,-0.38416 0.0746,-0.23969 0.0706,-0.31494 l -0.0967,-1.8203 q -0.0357,-0.67262 0.32712,-1.23849 0.36287,-0.56587 0.78958,-0.58792 0.22641,-0.0117 0.36168,0.15111 0.13962,0.16258 0.15462,0.44479 0.02,0.37629 -0.23337,1.03083 -0.25363,0.64984 -0.87623,1.83285 l 0.0722,1.35934 q 0.0155,0.29163 0.043,0.39868 0.0273,0.10236 0.11871,0.0976 0.19594,-0.0101 0.5986,-0.6488 l 0.14148,0.11532 q -0.47365,0.86402 -0.98308,0.89035 -0.15239,0.008 -0.23651,-0.0963 -0.0844,-0.10884 -0.10538,-0.50394 l -0.0455,-0.85606 q -0.11523,0.37856 -0.35337,0.74461 z m 0.87277,-1.73362 q 0.52845,-1.06495 0.68657,-1.54006 0.16223,-0.48004 0.14398,-0.8234 -0.028,-0.5268 -0.32843,-0.51128 -0.27431,0.0142 -0.44814,0.35804 -0.16948,0.34363 -0.13898,0.91747 z"
       style="font-style:normal;font-variant:normal;font-weight:normal;font-stretch:normal;font-size:29.73661041px;line-height:18.58538246px;font-family:'French Script MT';-inkscape-font-specification:'French Script MT, Normal';font-variant-ligatures:normal;font-variant-caps:normal;font-variant-numeric:normal;font-feature-settings:normal;text-align:start;letter-spacing:0px;word-spacing:0px;writing-mode:lr-tb;text-anchor:start;display:inline;fill:#000000;fill-opacity:1;stroke:none;stroke-width:0.23202309"
       id="path5297"
       inkscape:connector-curvature="0" />
    <path
       d="m 15.375783,4.4804491 -0.22093,0.48282 -0.37938,-0.33739 0.22778,-0.47001 z m 1.16891,2.1479 q -0.16818,0.45558 -0.38378,0.72969 -0.2156,0.27411 -0.41996,0.32362 -0.22992,0.0556 -0.31463,-0.0637 -0.0847,-0.11935 -0.14797,-0.45615 l -0.15767,-0.8397 q -0.0635,0.39646 -0.24976,0.80334 l -0.15364,-0.0834 q 0.28419,-0.69109 0.29858,-1.27822 l 0.37983,-0.34766 0.27462,1.46253 q 0.0511,0.27221 0.0889,0.35471 0.042,0.0815 0.13567,0.0588 0.19159,-0.0464 0.50385,-0.75395 z"
       style="font-style:normal;font-variant:normal;font-weight:normal;font-stretch:normal;font-size:29.73661041px;line-height:18.58538246px;font-family:'French Script MT';-inkscape-font-specification:'French Script MT, Normal';font-variant-ligatures:normal;font-variant-caps:normal;font-variant-numeric:normal;font-feature-settings:normal;text-align:start;letter-spacing:0px;word-spacing:0px;writing-mode:lr-tb;text-anchor:start;display:inline;fill:#000000;fill-opacity:1;stroke:none;stroke-width:0.23202309"
       id="LetterI"
       inkscape:connector-curvature="0" />
    <path
       d="m 22.974363,6.3526791 q -0.45187,0.86289 -0.92647,0.88742 -0.17852,0.009 -0.26239,-0.0902 -0.0839,-0.0994 -0.10573,-0.42846 -0.24274,0.36157 -0.42012,0.4745 -0.17277,0.11741 -0.40353,0.12933 -0.33527,0.0173 -0.54881,-0.22161 -0.20918,-0.23917 -0.23143,-0.65779 l -0.0108,-0.20226 q -0.0444,0.0683 -0.20406,0.35014 l -0.14944,-0.10076 q 0.34916,-0.65949 0.75226,-1.04349 0.40721,-0.38894 0.72506,-0.40536 0.22641,-0.0117 0.45622,0.12263 l 0.37192,-0.23146 0.085,1.59923 q 0.0135,0.25399 0.038,0.30461 0.0245,0.0506 0.12031,0.0457 0.0827,-0.004 0.23968,-0.17275 0.15696,-0.16847 0.33714,-0.47493 z m -1.32229,0.0117 -0.0503,-0.94542 q -0.18441,-0.18385 -0.42825,-0.17125 -0.26124,0.0135 -0.45624,0.2877 -0.195,0.27421 -0.17425,0.66461 0.018,0.33866 0.17604,0.51915 0.15779,0.17579 0.41468,0.16252 0.20029,-0.0104 0.35885,-0.23079 0.16267,-0.22537 0.15942,-0.28652 z"
       style="font-style:normal;font-variant:normal;font-weight:normal;font-stretch:normal;font-size:29.73661041px;line-height:18.58538246px;font-family:'French Script MT';-inkscape-font-specification:'French Script MT, Normal';font-variant-ligatures:normal;font-variant-caps:normal;font-variant-numeric:normal;font-feature-settings:normal;text-align:start;letter-spacing:0px;word-spacing:0px;writing-mode:lr-tb;text-anchor:start;display:inline;fill:#000000;fill-opacity:1;stroke:none;stroke-width:0.23202309"
       id="LetterA"
       inkscape:connector-curvature="0" />
    <path
       d="m 23.420863,3.3346091 q -0.0152,-0.28692 0.13275,-0.45965 0.14799,-0.17272 0.39618,-0.18555 0.53556,-0.0277 0.98044,0.5389 0.44925,0.56635 0.498,1.48355 0.0535,1.00658 -0.35848,1.71648 -0.41223,0.7052 -0.98697,0.7349 -0.32221,0.0166 -0.53374,-0.18466 -0.2118,-0.20602 -0.22779,-0.50705 l -0.009,-0.16462 q -0.007,-0.1317 -5.6e-4,-0.17449 l -0.18809,0.32102 -0.14944,-0.10076 q 0.78151,-1.47893 1.53913,-1.51808 0.40494,-0.0209 0.64214,0.3347 0.0151,-0.2083 0.005,-0.39645 -0.0335,-0.63028 -0.42239,-1.12901 -0.38889,-0.49872 -0.86784,-0.47397 -0.24383,0.0126 -0.44968,0.16474 z m 0.87444,3.47334 q 0.33091,-0.0171 0.57751,-0.3883 0.25071,-0.37613 0.22796,-0.80416 -0.015,-0.28221 -0.17589,-0.43426 -0.15679,-0.15698 -0.40933,-0.14393 -0.33527,0.0173 -0.57441,0.36456 -0.23915,0.34723 -0.2179,0.74704 0.0163,0.30573 0.17454,0.49093 0.15804,0.1805 0.39752,0.16812 z m 1.56735,-0.57623 q -0.43545,0.84318 -1.22265,0.98291 l -0.0449,-0.10616 q 0.70048,-0.21071 1.12226,-0.98244 z"
       style="font-style:normal;font-variant:normal;font-weight:normal;font-stretch:normal;font-size:29.73661041px;line-height:18.58538246px;font-family:'French Script MT';-inkscape-font-specification:'French Script MT, Normal';font-variant-ligatures:normal;font-variant-caps:normal;font-variant-numeric:normal;font-feature-settings:normal;text-align:start;letter-spacing:0px;word-spacing:0px;writing-mode:lr-tb;text-anchor:start;display:inline;fill:#000000;fill-opacity:1;stroke:none;stroke-width:0.23202309"
       id="path5305"
       inkscape:connector-curvature="0" />
    <path
       d="m 28.006063,6.3897891 q -0.23289,0.46482 -0.52668,0.68753 -0.29404,0.21801 -0.79041,0.24366 -0.36139,0.0187 -0.58699,-0.20077 -0.2215,-0.22438 -0.244,-0.64771 -0.006,-0.11289 0.005,-0.24078 -0.14525,0.22446 -0.22098,0.36044 l -0.14946,-0.10076 q 0.52004,-0.89471 0.81058,-1.17857 0.29029,-0.28856 0.61249,-0.30521 0.17852,-0.009 0.29772,0.0978 0.12357,0.10681 0.13307,0.28555 0.0325,0.61147 -0.9331,1.25565 0.15298,0.33168 0.57968,0.30963 0.20464,-0.0106 0.44433,-0.18332 0.24404,-0.17298 0.43243,-0.48929 z m -1.68554,0.0777 q 0.70253,-0.41835 0.67778,-0.884 -0.008,-0.14111 -0.0863,-0.22666 -0.0744,-0.0858 -0.19633,-0.0795 -0.22206,0.0115 -0.3627,0.24042 -0.14065,0.22894 -0.12415,0.53938 0.009,0.16933 0.0501,0.28512 0.0408,0.11109 0.0416,0.1252 z"
       style="font-style:normal;font-variant:normal;font-weight:normal;font-stretch:normal;font-size:29.73661041px;line-height:18.58538246px;font-family:'French Script MT';-inkscape-font-specification:'French Script MT, Normal';font-variant-ligatures:normal;font-variant-caps:normal;font-variant-numeric:normal;font-feature-settings:normal;text-align:start;letter-spacing:0px;word-spacing:0px;writing-mode:lr-tb;text-anchor:start;display:inline;fill:#000000;fill-opacity:1;stroke:none;stroke-width:0.23202309"
       id="path5307"
       inkscape:connector-curvature="0" />
    <path
       d="m 30.519883,6.2881791 q -0.2329,0.46482 -0.52668,0.68753 -0.29404,0.21801 -0.79041,0.24366 -0.36139,0.0187 -0.58699,-0.20077 -0.2215,-0.22438 -0.244,-0.64771 -0.006,-0.11289 0.005,-0.24078 -0.14525,0.22446 -0.22097,0.36044 l -0.14944,-0.10076 q 0.52004,-0.89471 0.81058,-1.17857 0.29029,-0.28856 0.61249,-0.30521 0.17852,-0.009 0.29773,0.0978 0.12356,0.10681 0.13306,0.28555 0.0325,0.61147 -0.9331,1.25565 0.15298,0.33168 0.57968,0.30963 0.20464,-0.0106 0.44433,-0.18332 0.24404,-0.17297 0.43243,-0.48929 z m -1.68554,0.0777 q 0.70253,-0.41835 0.67778,-0.884 -0.007,-0.14111 -0.0863,-0.22666 -0.0744,-0.0858 -0.19633,-0.0795 -0.22206,0.0115 -0.3627,0.24042 -0.14065,0.22894 -0.12415,0.53938 0.009,0.16933 0.0501,0.28512 0.0408,0.11109 0.0416,0.1252 z"
       style="font-style:normal;font-variant:normal;font-weight:normal;font-stretch:normal;font-size:29.73661041px;line-height:18.58538246px;font-family:'French Script MT';-inkscape-font-specification:'French Script MT, Normal';font-variant-ligatures:normal;font-variant-caps:normal;font-variant-numeric:normal;font-feature-settings:normal;text-align:start;letter-spacing:0px;word-spacing:0px;writing-mode:lr-tb;text-anchor:start;display:inline;fill:#000000;fill-opacity:1;stroke:none;stroke-width:0.23202309"
       id="LetterE"
       inkscape:connector-curvature="0" />
    <path
       d="m 19.711633,6.4929891 q -0.48235,0.86447 -0.9613,0.88922 -0.15675,0.008 -0.24523,-0.0958 -0.0887,-0.1086 -0.10973,-0.50371 l -0.0572,-1.07712 q -0.0132,-0.2493 -0.15693,-0.24187 -0.0697,0.004 -0.14504,0.0641 -0.071,0.0603 -0.1521,0.17766 -0.0813,0.11268 -0.22869,0.37971 -0.14325,0.26209 -0.14175,0.29031 l 0.045,0.84665 -0.41941,0.32354 -0.084,-1.58042 q -0.11523,0.37856 -0.36929,0.77373 l -0.14122,-0.11061 q 0.40426,-0.69065 0.48897,-1.23271 l 0.41496,-0.24312 0.0465,0.87487 q 0.29135,-0.515 0.47828,-0.69446 0.18694,-0.17946 0.38723,-0.18981 0.18287,-0.009 0.29052,0.12649 0.10764,0.13593 0.13714,0.69096 l 0.0335,0.63028 q 0.0135,0.254 0.0359,0.34716 0.0268,0.093 0.11385,0.0884 0.21335,-0.011 0.5986,-0.6488 z"
       style="font-style:normal;font-variant:normal;font-weight:normal;font-stretch:normal;font-size:29.73661041px;line-height:18.58538246px;font-family:'French Script MT';-inkscape-font-specification:'French Script MT, Normal';font-variant-ligatures:normal;font-variant-caps:normal;font-variant-numeric:normal;font-feature-settings:normal;text-align:start;letter-spacing:0px;word-spacing:0px;writing-mode:lr-tb;text-anchor:start;display:inline;fill:#000000;fill-opacity:1;stroke:none;stroke-width:0.23202309"
       id="LetterN"
       inkscape:connector-curvature="0" />
    <path
       style="font-style:normal;font-variant:normal;font-weight:normal;font-stretch:normal;font-size:29.73661041px;line-height:18.58538246px;font-family:'French Script MT';-inkscape-font-specification:'French Script MT, Normal';font-variant-ligatures:normal;font-variant-caps:normal;font-variant-numeric:normal;font-feature-settings:normal;text-align:start;letter-spacing:0px;word-spacing:0px;writing-mode:lr-tb;text-anchor:start;display:inline;fill:none;fill-opacity:1;stroke:#cf0000;stroke-width:0.33199999;stroke-linecap:round;stroke-miterlimit:4;stroke-dasharray:none;stroke-opacity:1"
       d="m 7.6674144,15.17457 c -0.02339,0.09144 -0.2698731,0.08056 -0.2688344,0.204123 0.00138,0.164603 0.2281697,0.449442 0.3141062,0.575542 0.1467407,0.215322 0.4345445,0.352904 0.6950696,0.357694 0.4088762,0.0075 0.9037553,-0.164778 1.1107611,-0.520899 0.1519413,-0.261392 0.2766228,-0.32557 0.3350174,-0.982958 0.03012,-0.339085 0.032019,-0.578933 0.010694,-0.867252 -0.018155,-0.245455 -0.1037495,-0.483214 -0.1176287,-0.728948 -0.030779,-0.544957 -0.1202287,-1.393724 0.077174,-1.635655"
       id="B2"
       inkscape:connector-curvature="0"
       sodipodi:nodetypes="cssassaac" />
    <path
       style="font-style:normal;font-variant:normal;font-weight:normal;font-stretch:normal;font-size:29.73661041px;line-height:18.58538246px;font-family:'French Script MT';-inkscape-font-specification:'French Script MT, Normal';font-variant-ligatures:normal;font-variant-caps:normal;font-variant-numeric:normal;font-feature-settings:normal;text-align:start;letter-spacing:0px;word-spacing:0px;writing-mode:lr-tb;text-anchor:start;display:inline;fill:none;fill-opacity:1;stroke:#cf0000;stroke-width:0.23199999;stroke-miterlimit:4;stroke-dasharray:none;stroke-opacity:1"
       d="m 10.176853,10.911892 c -0.1824605,0.345873 -0.2984128,0.399859 -0.3243729,0.636598 -0.056819,0.518153 0.015451,1.027177 0.1281626,1.524537 0.079999,0.35301 0.1580863,0.66448 0.1470143,1.001812 -0.01792,0.545922 -0.01309,1.141746 -0.3437245,1.602193 -0.33064,0.46044 -0.7543033,0.70401 -1.27099,0.73071 -0.33672,0.0174 -0.6225,-0.07474 -0.85734,-0.27642 -0.2348467,-0.20168 -0.3843733,-0.49581 -0.44858,-0.88239"
       id="B1"
       inkscape:connector-curvature="0"
       sodipodi:nodetypes="cssacscc" />
    <path
       style="font-style:normal;font-variant:normal;font-weight:normal;font-stretch:normal;font-size:29.73661041px;line-height:18.58538246px;font-family:'French Script MT';-inkscape-font-specification:'French Script MT, Normal';font-variant-ligatures:normal;font-variant-caps:normal;font-variant-numeric:normal;font-feature-settings:normal;text-align:start;letter-spacing:0px;word-spacing:0px;writing-mode:lr-tb;text-anchor:start;display:inline;fill:#000000;fill-opacity:1;stroke:none;stroke-width:0.23202309"
       d="m 5.8107519,13.244802 q 1.13291,0.28576 1.19965,1.54163 0.0413,0.7761 -0.31166,1.36503 -0.35317,0.584241 -0.87131,0.611011 -0.56603,0.0293 -0.83811,-0.48965 0.0782,-0.0889 0.41245,-0.290161 0.0368,0.0358 0.047,0.0636 0.12515,0.465191 0.51702,0.444941 0.31349,-0.0162 0.50885,-0.365891 0.1951,-0.35439 0.16535,-0.91412 -0.0388,-0.72906 -0.4367,-1.15185 -0.39385,-0.42771 -1.00342,-0.39621 l -0.0219,-0.0838 q 0.36185,-0.17434 0.56391,-0.56211 0.20642,-0.38799 0.18442,-0.8019 -0.0323,-0.60677 -0.49041,-1.0123 -0.45381,-0.40575 -1.07645,-0.37357 -0.93178,0.0482 -1.64169,0.82062 -0.70555,0.77223 -0.65656,1.69414 0.0235,0.44214 0.22523,0.70528 0.20147,0.25843 0.49755,0.24313 0.34833,-0.018 0.62052,-0.56504 l 0.0944,0.0517 q -0.11273,0.42559 -0.36198,0.66487 -0.24925,0.23927 -0.5671,0.2557 -0.34397,0.0178 -0.57233,-0.25341 -0.22399,-0.27142 -0.24774,-0.71827 -0.0388,-0.72905 0.35306,-1.4898 0.39181,-0.76074 1.08214,-1.24449 0.69443,-0.48867 1.47817,-0.52917 0.70972,-0.0367 1.15382,0.35071 0.4482,0.38246 0.4837,1.05037 0.04,0.75258 -0.48994,1.37896 z"
       id="path5080" />
    <path
       style="font-style:normal;font-variant:normal;font-weight:normal;font-stretch:normal;font-size:29.73661041px;line-height:18.58538246px;font-family:'French Script MT';-inkscape-font-specification:'French Script MT, Normal';font-variant-ligatures:normal;font-variant-caps:normal;font-variant-numeric:normal;font-feature-settings:normal;text-align:start;letter-spacing:0px;word-spacing:0px;writing-mode:lr-tb;text-anchor:start;display:inline;fill:#800080;fill-opacity:1;stroke:none;stroke-width:0.23202309"
       d="m 5.0235619,11.413022 q -0.27369,0.51881 -0.24169,1.12088 0.017,0.31984 0.14368,0.97833 0.13104,0.65825 0.14904,0.99692 0.052,0.97834 -0.44395,1.66901 -0.49596,0.690661 -1.27099,0.730711 -0.50508,0.0261 -0.85734,-0.27642 -0.35227,-0.30252 -0.44858,-0.882391 0.23298,-0.13467 0.55914,-0.24114 l 0.0209,0.0649 q -0.0861,0.18839 -0.0753,0.39065 0.0165,0.310441 0.25977,0.533691 0.24327,0.22325 0.5916,0.20525 0.5312,-0.0275 0.86634,-0.540001 0.3395,-0.51278 0.29575,-1.33591 -0.0138,-0.2587 -0.0843,-0.76444 -0.0705,-0.50574 -0.0838,-0.75504 -0.0647,-1.21823 0.54602,-1.96671 z"
       id="Morph2"
       inkscape:connector-curvature="0" />
    <path
       id="Morph1"
       d="m 2.0537319,15.750062 c 0.15532,-0.08978 0.3417,-0.17016 0.55914,-0.24114 l 0.0209,0.0649 c -0.0574,0.125593 -0.0825,0.25581 -0.0753,0.39065 -0.4077126,-0.03281 0,0 -0.50474,-0.21441 z"
       style="font-style:normal;font-variant:normal;font-weight:normal;font-stretch:normal;font-size:29.73661041px;line-height:18.58538246px;font-family:'French Script MT';-inkscape-font-specification:'French Script MT, Normal';font-variant-ligatures:normal;font-variant-caps:normal;font-variant-numeric:normal;font-feature-settings:normal;text-align:start;letter-spacing:0px;word-spacing:0px;writing-mode:lr-tb;text-anchor:start;display:inline;opacity:1;fill:#0000ff;fill-opacity:1;stroke:none;stroke-width:0.23202309"
       inkscape:connector-curvature="0"
       sodipodi:nodetypes="ccccc" />
  </g>
  <path
     style="fill:none;stroke:#00df00;stroke-width:0.26499999;stroke-linecap:butt;stroke-linejoin:miter;stroke-miterlimit:4;stroke-dasharray:none;stroke-opacity:1"
     d="m 28.834342,6.4326963 c -0.330578,0.2040712 1.311481,-0.6293788 0.836789,-1.2343688 -0.423553,-0.539814 -1.219225,0.4608697 -1.106042,1.3005737 0.04862,0.3606918 0.467741,0.5996601 0.759754,0.5767855 0.579621,-0.045404 1.200692,-0.730571 1.19504,-0.7875077 v 0 0"
     id="path4500"
     inkscape:connector-curvature="0"
     sodipodi:nodetypes="csssccc" />
  <path
     style="opacity:0.994;fill:none;stroke:#cf0000;stroke-width:0.46500003;stroke-linecap:round;stroke-linejoin:miter;stroke-miterlimit:3.5999999;stroke-dasharray:none;stroke-opacity:1;paint-order:fill markers stroke"
     d="m 15.233947,14.320659 c 0.09561,0.40006 0.170337,0.518524 0.363755,0.694074 0.218313,0.198147 0.525924,0.360988 0.819416,0.33296 0.396656,-0.03788 0.769556,-0.32802 1.00226,-0.651469 0.298921,-0.415488 0.288186,-0.91789 0.318816,-1.428816 0.03765,-0.628069 -0.22415,-1.284059 -0.185181,-1.928758 0.03022,-0.499996 0.322748,-1.4676575 0.322748,-1.4676575 v 0"
     id="path4506"
     inkscape:connector-curvature="0"
     sodipodi:nodetypes="casssacc" />
  <path
     style="fill:none;stroke:#e30000;stroke-width:0.465;stroke-linecap:round;stroke-linejoin:miter;stroke-miterlimit:4;stroke-dasharray:none;stroke-opacity:1"
     d="m 16.507579,12.210015 c 0,0 -0.545153,0.803138 -0.963308,0.729066 -0.418022,-0.07405 -0.572103,-0.579872 -0.590588,-1.004 -0.03302,-0.7577 0.37089,-1.588356 0.968564,-2.0552451 0.75443,-0.5893434 1.912198,-0.9168709 2.692909,-0.4492526 0.485059,0.2905333 0.607358,1.0450077 0.543512,1.6068047 -0.04274,0.376032 -1.058943,0.913256 -0.595851,0.966436 0.842707,0.09677 0.818405,0.209455 1.05651,0.521845 0.340301,0.446469 0.442186,1.105975 0.318917,1.653646 -0.08473,0.376453 -0.313615,0.828686 -0.685082,0.933129 -0.291988,0.0821 -0.841836,-0.345377 -0.841836,-0.345377"
     id="path5054"
     inkscape:connector-curvature="0"
     sodipodi:nodetypes="csssaasaaac" />
</svg>
