<?xml version="1.0" encoding="UTF-8" standalone="no"?>
<!-- Created with Inkscape (http://www.inkscape.org/) -->

<svg
   xmlns:dc="http://purl.org/dc/elements/1.1/"
   xmlns:cc="http://creativecommons.org/ns#"
   xmlns:rdf="http://www.w3.org/1999/02/22-rdf-syntax-ns#"
   xmlns:svg="http://www.w3.org/2000/svg"
   xmlns="http://www.w3.org/2000/svg"
   xmlns:sodipodi="http://sodipodi.sourceforge.net/DTD/sodipodi-0.dtd"
   xmlns:inkscape="http://www.inkscape.org/namespaces/inkscape"
   id="MainTitleSVG"
   width="400"
   height="400"
   viewBox="0 0 400 400"
   version="1.1"
   sodipodi:docname="Title.svg"
   inkscape:version="0.92.0 r15299">
  <metadata
     id="metadata3696">
    <rdf:RDF>
      <cc:Work
         rdf:about="">
        <dc:format>image/svg+xml</dc:format>
        <dc:type
           rdf:resource="http://purl.org/dc/dcmitype/StillImage" />
      </cc:Work>
    </rdf:RDF>
  </metadata>
  <defs
     id="defs3694" />
  <sodipodi:namedview
     pagecolor="#ffffff"
     bordercolor="#666666"
     borderopacity="1"
     objecttolerance="10"
     gridtolerance="10"
     guidetolerance="10"
     inkscape:pageopacity="0"
     inkscape:pageshadow="2"
     inkscape:window-width="1280"
     inkscape:window-height="961"
     id="namedview3692"
     showgrid="false"
     inkscape:zoom="16.000001"
     inkscape:cx="-15.081171"
     inkscape:cy="402.13523"
     inkscape:window-x="-8"
     inkscape:window-y="-8"
     inkscape:window-maximized="1"
     inkscape:current-layer="MainTitleSVG" />
  <g
     id="LetterB">
    <path
       class="parts part-2"
       d="m 6.4288127,5.1598991 q 1.13291,0.28576 1.19965,1.54163 0.0413,0.7761 -0.31166,1.36503 -0.35317,0.5842402 -0.87131,0.6110102 -0.56603,0.0293 -0.83811,-0.48965 0.0782,-0.0889 0.41245,-0.2901602 0.0368,0.0358 0.047,0.0636 0.12515,0.4651902 0.51702,0.4449402 0.31349,-0.0162 0.50885,-0.3658902 0.1951,-0.35439 0.16535,-0.91412 -0.0388,-0.72906 -0.4367,-1.15185 -0.39385,-0.42771 -1.00342,-0.39621 l -0.0219,-0.0838 q 0.36185,-0.17434 0.56391,-0.56211 0.20642,-0.38799 0.18442,-0.8019 -0.0323,-0.60677 -0.49041,-1.0123 -0.45381,-0.40575 -1.07645,-0.37357 -0.93178,0.0482 -1.64169,0.82062 -0.70555,0.77223 -0.65656,1.69414 0.0235,0.44214 0.22523,0.70528 0.20147,0.25843 0.49755,0.24313 0.34833,-0.018 0.62052,-0.56504 l 0.0944,0.0517 q -0.11273,0.42559 -0.36198,0.66487 -0.24925,0.23927 -0.5671,0.2557 -0.34397,0.0178 -0.57233,-0.25341 -0.22399,-0.27142 -0.24774,-0.71827 -0.0388,-0.72905 0.35306,-1.4898 0.39181,-0.76074 1.08214,-1.24449 0.69443,-0.48867 1.47817,-0.52917 0.70972,-0.0367 1.15382,0.35071 0.4482,0.38246 0.4837,1.05037 0.04,0.75258 -0.48994,1.37896 z"
       style="font-style:normal;font-variant:normal;font-weight:normal;font-stretch:normal;font-size:29.73661041px;line-height:18.58538246px;font-family:'French Script MT';-inkscape-font-specification:'French Script MT, Normal';font-variant-ligatures:normal;font-variant-caps:normal;font-variant-numeric:normal;font-feature-settings:normal;text-align:start;letter-spacing:0px;word-spacing:0px;writing-mode:lr-tb;text-anchor:start;display:inline;fill:#000000;fill-opacity:1;stroke:none;stroke-width:0.23202309"
       inkscape:connector-curvature="0"
       id="path4585" />
    <path
       class="parts part-1"
       d="m 5.6416227,3.3281191 q -0.27369,0.51881 -0.24169,1.12088 0.017,0.31984 0.14368,0.97833 0.13104,0.65825 0.14904,0.99692 0.052,0.97834 -0.44395,1.66901 -0.49596,0.6906602 -1.27099,0.7307102 -0.50508,0.0261 -0.85734,-0.27642 -0.35227,-0.30252 -0.44858,-0.8823902 0.23298,-0.13467 0.55914,-0.24114 l 0.0209,0.0649 q -0.0861,0.18839 -0.0753,0.39065 0.0165,0.3104402 0.25977,0.5336902 0.24327,0.22325 0.5916,0.20525 0.5312,-0.0275 0.86634,-0.5400002 0.3395,-0.51278 0.29575,-1.33591 -0.0138,-0.2587 -0.0843,-0.76444 -0.0705,-0.50574 -0.0838,-0.75504 -0.0647,-1.21823 0.54602,-1.96671 z"
       style="font-style:normal;font-variant:normal;font-weight:normal;font-stretch:normal;font-size:29.73661041px;line-height:18.58538246px;font-family:'French Script MT';-inkscape-font-specification:'French Script MT, Normal';font-variant-ligatures:normal;font-variant-caps:normal;font-variant-numeric:normal;font-feature-settings:normal;text-align:start;letter-spacing:0px;word-spacing:0px;writing-mode:lr-tb;text-anchor:start;display:inline;opacity:0;fill:#00b100;fill-opacity:1;stroke:none;stroke-width:0.23202309"
       inkscape:connector-curvature="0"
       id="path4587" />
    <g
       class="draw-parts"
       id="g4568">
      <path
         d="M 2.7537091,7.6400606 C 2.885846,8.0563583 2.9091608,8.1821605 3.0763448,8.3659256 3.3548315,8.6720323 3.6835074,8.76971 4.018947,8.7265102 4.3614758,8.6823974 4.7235313,8.5374778 4.9539928,8.2802631 5.1544068,8.0565841 5.3506068,7.7888472 5.4565017,7.4974019 5.5751636,7.1708194 5.5863211,6.8107673 5.5878866,6.4632988 5.5891149,6.1906564 5.5300785,5.9209787 5.4921103,5.6509902 5.4436196,5.3061776 5.3209073,4.9682569 5.3235583,4.6200614 c 0.00348,-0.456595 0.241584,-1.3483536 0.241584,-1.3483536"
         style="opacity:1;fill:none;stroke:#000000;stroke-width:0.2;stroke-linecap:butt;stroke-linejoin:miter;stroke-miterlimit:4;stroke-dasharray:none;stroke-opacity:1"
         class="draw"
         id="path4503"
         inkscape:connector-curvature="0" />
      <path
         d="m 2.9611745,7.5667105 c 0,0 -0.036326,0.6292918 0.177182,0.7992151 C 3.3898222,8.5660579 3.6978594,8.7874619 4.018947,8.7265102 4.5599668,8.623809 5.0060443,8.1252857 5.2609352,7.6371458 5.4586121,7.2585759 5.409776,6.7909381 5.4037212,6.363908 5.4002072,6.1160721 5.3246387,5.8742308 5.2999348,5.6276041 5.2661267,5.2900865 5.2090959,4.9496537 5.2392853,4.6117932 5.28066,4.1487531 5.5679127,3.2564091 5.5679127,3.2564091"
         style="opacity:1;fill:none;fill-opacity:1;stroke:#000000;stroke-width:0.2;stroke-linecap:butt;stroke-linejoin:miter;stroke-miterlimit:4;stroke-dasharray:none;stroke-opacity:1"
         class="draw main"
         id="path4523"
         inkscape:connector-curvature="0" />
      <path
         id="path4501"
         class="draw"
         d="m 3.1181144,7.4986916 c 0.053743,0.05607 0.00785,0.097017 0.011234,0.1455654 0.011777,0.1691308 -0.022454,0.3921627 0.031525,0.5076431 0.078405,0.1677373 0.1582863,0.287558 0.2903792,0.3738875 0.1880569,0.1229045 0.4314925,0.1995586 0.65347,0.1649656 C 4.419223,8.6417414 4.7036637,8.4239158 4.9155417,8.1863861 5.0379706,8.0491351 5.1025103,7.8649536 5.1517752,7.6877541 5.2462602,7.3479042 5.2728517,6.9957817 5.25732,6.6348111 5.2382047,6.1905528 5.1725165,5.9490818 5.1425944,5.6049796 5.1199922,5.3450558 5.063578,5.0829577 5.0936809,4.8237955 5.1154641,4.6362594 5.131197,4.3568288 5.1941295,4.132717 5.2799838,3.8269773 5.5679127,3.2564091 5.5679127,3.2564091"
         style="opacity:1;fill:none;stroke:#000000;stroke-width:0.15000001;stroke-linecap:butt;stroke-linejoin:miter;stroke-miterlimit:4;stroke-dasharray:none;stroke-opacity:1"
         inkscape:connector-curvature="0" />
      <path
         style="opacity:1;fill:none;stroke:#000000;stroke-width:0.15000001;stroke-linecap:butt;stroke-linejoin:miter;stroke-miterlimit:4;stroke-dasharray:none;stroke-opacity:1"
         d="M 2.691324,7.7237529 3.1796876,7.5039062 v 0"
         class="start"
         inkscape:connector-curvature="0"
         id="path4493" />
      <path
         style="opacity:1;fill:#00000;fill-opacity:1;fill-rule:evenodd;stroke:none;stroke-width:0.52466911;stroke-linecap:butt;stroke-linejoin:miter;stroke-miterlimit:4;stroke-dasharray:none;stroke-dashoffset:0;stroke-opacity:1;paint-order:fill markers stroke"
         d="M 3.2518327,7.774173 A 0.21181254,0.27698563 0 0 1 3.0400202,8.0511586 0.21181254,0.27698563 0 0 1 2.8282076,7.774173 0.21181254,0.27698563 0 0 1 3.0400202,7.4971874 0.21181254,0.27698563 0 0 1 3.2518327,7.774173 Z"
         id="circle"
         class="draw marker"
         inkscape:connector-curvature="0" />
    </g>
    <g
       class="draw-parts"
       id="g4578">
      <path
         style="fill:none;stroke:#000000;stroke-width:0.18897638;stroke-linecap:butt;stroke-linejoin:miter;stroke-miterlimit:4;stroke-dasharray:none;stroke-opacity:1"
         d="m 4.1169527,5.6943791 c 0,0 -0.414097,0.7796578 -0.7802925,0.8227946 C 3.142146,6.5400869 2.8897154,6.5423651 2.7536753,6.3980254 2.4331154,6.0579086 2.360837,5.4365712 2.5274711,4.9237561 2.7153347,4.3456077 2.835133,3.9738075 3.1568406,3.6101541 3.6253945,3.0805079 4.2427512,2.5583531 4.9439847,2.4670324 5.5200612,2.3920108 6.3289028,2.4869507 6.603704,2.9987872 6.7874757,3.341075 6.8797954,3.8378807 6.8167689,4.2593375 6.759968,4.639164 6.5303665,4.8103752 6.3008071,5.2894997 6.8663008,5.205283 7.2869142,5.7381706 7.5035485,6.1896469 7.7453956,6.6936677 7.6937146,7.3640188 7.4473096,7.8658271 7.2662833,8.2344905 6.9065751,8.6081188 6.4981608,8.6514898 6.1653048,8.6868371 5.5667751,8.2885895 5.6073827,8.1879193"
         class="draw"
         inkscape:connector-curvature="0"
         sodipodi:nodetypes="csssaasacaaac"
         id="path4570" />
      <path
         sodipodi:nodetypes="caaaaaaacaaaac"
         inkscape:connector-curvature="0"
         class="draw"
         d="m 4.1169527,5.6943791 c 0,0 -0.4280989,0.5664878 -0.7471469,0.6570664 C 3.1837865,6.404257 2.9336872,6.392038 2.7978695,6.2543943 2.4878051,5.9401615 2.5399902,5.3840207 2.5937624,4.9458532 2.6526167,4.466273 2.8306831,3.9666402 3.1568406,3.6101541 3.6261161,3.0972417 4.3102971,2.725893 4.9992274,2.6327606 5.451709,2.5715923 6.0059554,2.6151646 6.3362984,2.9303703 6.6657082,3.2446857 6.7521683,3.796555 6.6952349,4.248289 6.6355838,4.7215864 6.2178665,5.0135002 5.9883071,5.4926247 6.2328738,5.4562024 6.5157806,5.420675 6.7328057,5.5421627 7.0792282,5.7360852 7.3181733,6.1305453 7.4215172,6.5138657 7.5324953,6.925502 7.499195,7.407307 7.3066846,7.7877021 7.1458542,8.1054984 6.8597358,8.4538511 6.5059733,8.4952398 6.2434425,8.5259548 5.7659939,8.2221833 5.8066015,8.121513"
         style="fill:none;stroke:#000000;stroke-width:0.18897638;stroke-linecap:butt;stroke-linejoin:miter;stroke-miterlimit:4;stroke-dasharray:none;stroke-opacity:1"
         id="path4572" />
      <path
         style="fill:none;stroke:#000000;stroke-width:0.18897638;stroke-linecap:butt;stroke-linejoin:miter;stroke-miterlimit:4;stroke-dasharray:none;stroke-opacity:1"
         d="m 4.1169527,5.6943791 c 0,0 -0.3441148,0.5112802 -0.6182406,0.5750352 C 3.2968581,6.3163604 3.0478135,6.2389112 2.9033383,6.0903318 2.6278284,5.8069952 2.5638624,5.3399234 2.5937624,4.9458532 2.630152,4.4662571 2.8474336,3.9766868 3.1763719,3.6257791 3.6509473,3.1195073 4.3307715,2.7170813 5.0226649,2.6640106 5.4379008,2.6321605 5.9063511,2.7760212 6.205774,3.065471 6.5007734,3.3506445 6.6741964,3.8081181 6.6405474,4.217039 6.5998749,4.7113136 6.0390684,5.3537691 5.8945571,5.5043435 c 0.3945512,0.072449 0.5509893,0.050265 0.7679361,0.2018817 0.2883372,0.2015091 0.524448,0.5232921 0.602774,0.8662342 0.090914,0.3980564 0.095648,0.8584337 0.010167,1.2035239 C 7.1897961,8.1217101 6.8464784,8.4226319 6.5137858,8.421021 6.2694127,8.4198378 5.9183377,8.0424958 5.9589453,7.9418255"
         class="draw"
         inkscape:connector-curvature="0"
         sodipodi:nodetypes="caaaaaaacassac"
         id="path4574" />
      <path
         sodipodi:nodetypes="caaaaaaacassac"
         inkscape:connector-curvature="0"
         class="draw"
         d="m 4.0225527,5.6426791 c 0,0 -0.2630281,0.5485632 -0.5238406,0.6267352 C 3.3001959,6.3289145 3.0478135,6.2389112 2.9033383,6.0903318 2.6278284,5.8069952 2.5638624,5.3399234 2.5937624,4.9458532 2.630152,4.4662571 2.8474336,3.9766868 3.1763719,3.6257791 3.6509473,3.1195073 4.3297201,2.7008944 5.0226649,2.6640106 c 0.4111862,-0.021886 0.856725,0.1621039 1.1499635,0.4511788 0.2726663,0.268795 0.454882,0.6808274 0.4347734,1.0631797 -0.026355,0.5011215 -0.5683334,1.1754 -0.7128447,1.3259744 0.3945512,0.072449 0.5529975,0.047431 0.7679361,0.2018817 0.2806399,0.2016623 0.4913024,0.5232921 0.5696284,0.8662342 0.090914,0.3980564 0.1287939,0.8584337 0.043313,1.2035239 C 7.1897961,8.1217101 6.8464784,8.4226318 6.5137858,8.421021 6.2694127,8.4198378 5.9183377,8.0424958 5.9589453,7.9418255"
         style="fill:none;stroke:#000000;stroke-width:0.18897638;stroke-linecap:butt;stroke-linejoin:miter;stroke-miterlimit:4;stroke-dasharray:none;stroke-opacity:1"
         id="path4576" />
      <path
         style="fill:none;stroke:#000000;stroke-width:0.13382474;stroke-linecap:butt;stroke-linejoin:miter;stroke-miterlimit:4;stroke-dasharray:none;stroke-opacity:1;opacity:1"
         d="M 5.5273438,8.1914063 5.9997373,7.908645 6.0198327,7.8977591"
         class="end"
         inkscape:connector-curvature="0"
         id="path4500" />
    </g>
  </g>
  <g
     id="Lettera">
    <path
       d="M 11.593945,7.630595 Q 11.055385,8.6590308 10.489737,8.6882624 10.27697,8.6992584 10.177006,8.5807521 10.077041,8.4622504 10.050996,8.0700997 9.761678,8.5010296 9.550277,8.6356261 9.344363,8.77556 9.069323,8.789774 8.669737,8.810422 8.415232,8.5256436 8.165917,8.2405957 8.1394,7.7416623 L 8.12659,7.5006066 Q 8.073677,7.5820406 7.8833807,7.9179146 L 7.7052755,7.7978257 Q 8.121425,7.0118124 8.601857,6.5541418 9.087182,6.090593 9.46601,6.0710159 9.73586,6.0570705 10.009758,6.2171767 L 10.45302,5.941309 10.554321,7.8473385 q 0.01609,0.3027222 0.04531,0.3630478 0.02923,0.060326 0.143392,0.054426 0.0986,-0.0051 0.285667,-0.2058875 0.187069,-0.2007964 0.401822,-0.5660408 z M 10.017973,7.64458 9.958083,6.5177781 Q 9.73829,6.2986622 9.447682,6.3136803 9.136317,6.3297713 8.903909,6.656578 8.671501,6.9833848 8.696231,7.4486822 8.717681,7.852313 8.906041,8.0674324 9.094101,8.2769461 9.400277,8.2611235 9.638991,8.2487875 9.827972,7.9860603 10.021843,7.7174591 10.01797,7.6445807 Z"
       style="font-style:normal;font-variant:normal;font-weight:normal;font-stretch:normal;font-size:29.73661041px;line-height:18.58538246px;font-family:'French Script MT';-inkscape-font-specification:'French Script MT, Normal';font-variant-ligatures:normal;font-variant-caps:normal;font-variant-numeric:normal;font-feature-settings:normal;text-align:start;letter-spacing:0px;word-spacing:0px;writing-mode:lr-tb;text-anchor:start;display:inline;fill:#000000;fill-opacity:1;stroke:none;stroke-width:0.27653542"
       class="parts part-1"
       inkscape:connector-curvature="0"
       id="path4504" />
    <g
       class="draw-parts"
       id="g4505">
      <path
         style="opacity:1;fill:none;stroke:#000000;stroke-width:0.18897638;stroke-linecap:butt;stroke-linejoin:miter;stroke-miterlimit:4;stroke-dasharray:none;stroke-opacity:1"
         d="M 7.7631658,7.831205 C 8.5596533,6.5049242 9.3127172,5.900137 9.9537057,6.3300564 10.657194,6.0216945 10.200854,6.1341134 10.346749,6.189914 10.396534,6.6604905 10.190944,7.185207 10.227084,7.7737418 10.07559,7.8414881 9.9436176,8.0622078 9.8533574,8.1921163 9.6889956,8.4286765 9.4319704,8.6619122 9.1396045,8.687621 8.7468182,8.7221603 8.6386191,8.6205764 8.4853629,8.4457245 8.2626498,8.1916284 8.1871205,7.7867031 8.2614842,7.4571033 8.3669651,6.989584 8.6731888,6.5166524 9.1504014,6.3270011 9.4476088,6.2088865 9.9896176,6.5934932 10.346749,6.189914 c 0.009,0.1594975 0.01482,0.1092001 0.02006,0.1640365 0.04575,0.4786546 0.06553,0.9594375 0.09927,1.4390883 0.01005,0.142893 0.02071,0.2574083 0.03074,0.4286377 0.312643,0.3913058 0.990018,-0.6412082 1.016562,-0.6765953"
         id="path4539"
         inkscape:connector-curvature="0"
         sodipodi:nodetypes="ccccssaascaacc"
         class="draw" />
      <path
         class="draw"
         sodipodi:nodetypes="cccaaaaassasc"
         inkscape:connector-curvature="0"
         id="path4509"
         d="M 7.8277717,7.8958306 C 9.1176481,5.8270033 9.4932373,6.0635376 10.167739,6.4092888 10.225059,7.3447312 10.080779,7.2539014 10.116919,7.8424362 9.9654297,7.9101825 9.9026704,8.184977 9.7302531,8.2695711 9.5469076,8.3595271 9.3076452,8.3960044 9.1194031,8.3168049 8.8921098,8.2211753 8.7216701,7.9838175 8.6444563,7.7496268 8.5540534,7.4754335 8.5870849,7.1522201 8.6965333,6.8850578 8.7822629,6.6757929 8.9398184,6.4740035 9.1425889,6.3738761 9.47281,6.210814 9.7118789,6.4495351 10.245186,6.3031952 c 0.108876,-0.029875 0.0785,0.2536079 0.076,0.3840994 -0.009,0.4699884 -0.09777,1.0632949 0.06707,1.5553495 0.02853,0.085148 0.04586,0.1779728 0.152871,0.2218228 0.414251,0.1697456 1.026269,-0.7984848 1.052813,-0.8338719"
         style="opacity:1;fill:none;stroke:#000000;stroke-width:0.18897638;stroke-linecap:butt;stroke-linejoin:miter;stroke-miterlimit:4;stroke-dasharray:none;stroke-opacity:1" />
      <path
         style="fill:none;stroke:#000000;stroke-width:0.18897638;stroke-linecap:butt;stroke-linejoin:miter;stroke-miterlimit:4;stroke-dasharray:none;stroke-opacity:1"
         d="m 7.8277717,7.8958306 c 1.2898764,-2.0688273 1.5494564,-1.832293 2.2239573,-1.4865418 0.05732,0.9354424 0.02905,0.8446126 0.06519,1.4331474 C 9.9654249,7.9101825 9.8815134,8.112915 9.7322637,8.2077413 9.5301388,8.336162 9.2949475,8.5290816 9.0630976,8.4691487 8.7611225,8.3910885 8.5454508,8.0504939 8.4657166,7.7489566 8.3892633,7.4598265 8.4803644,7.1287592 8.6223146,6.8655266 8.7355683,6.6555086 8.9238102,6.4691119 9.1425889,6.3738761 c 0.33768,-0.1469943 0.56929,0.075659 1.1025971,-0.070681 0.108876,-0.029875 0.02772,0.3317329 0.02522,0.4622244 -0.01117,0.5829276 -0.230819,1.4634274 0.118381,1.7849848 0.332414,0.3061009 1.178613,-0.8844223 1.205157,-0.9198094"
         id="path4558"
         inkscape:connector-curvature="0"
         sodipodi:nodetypes="cccaaaaasssc"
         class="draw" />
      <path
         class="draw"
         sodipodi:nodetypes="cczaaaaasssc"
         inkscape:connector-curvature="0"
         id="path4560"
         d="M 7.8277717,7.8958306 C 9.1176481,5.8270033 9.4701881,6.0384821 10.144689,6.3842333 10.202013,7.3196757 10.264025,7.517688 10.132544,7.822905 10.001063,8.1281219 9.8850688,8.1032963 9.7322637,8.2077413 9.5021089,8.3650563 9.2451412,8.6206082 8.9732539,8.5589925 8.6428881,8.4841242 8.3884355,8.1090681 8.3250916,7.7763003 8.2653744,7.4625851 8.4514489,7.1353196 8.6223146,6.8655266 8.7499808,6.6639446 8.9238102,6.4691119 9.1425889,6.3738761 c 0.33768,-0.1469943 0.56929,0.075659 1.1025971,-0.070681 0.108876,-0.029875 0.02772,0.3317329 0.02522,0.4622244 -0.01117,0.5829276 -0.340194,1.4751462 0.009,1.7967036 0.33242,0.3061009 1.28799,-0.896141 1.314534,-0.9315281"
         style="opacity:1;fill:none;stroke:#000000;stroke-width:0.18897638;stroke-linecap:butt;stroke-linejoin:miter;stroke-miterlimit:4;stroke-dasharray:none;stroke-opacity:1" />
    </g>
  </g>
  <g
     id="Letterl">
    <path
       d="m 11.232131,7.8263312 q 0.08927,-0.1542283 0.159241,-0.285291 0.0748,-0.136857 0.147836,-0.3068667 0.07274,-0.1755398 0.155545,-0.4513393 0.08763,-0.2815902 0.08294,-0.3700082 L 11.66402,4.2742394 q -0.04199,-0.7902292 0.384324,-1.4550453 0.426323,-0.6648158 0.927638,-0.6907228 0.266004,-0.013746 0.424925,0.1775278 0.164036,0.1910062 0.181659,0.5225703 0.02349,0.4420869 -0.274182,1.211077 -0.29797,0.7634678 -1.029435,2.1533331 l 0.08488,1.5970332 q 0.01822,0.3426162 0.05054,0.4683917 0.03203,0.1202536 0.139463,0.1147016 0.230195,-0.01189 0.703267,-0.7622474 l 0.16622,0.1354843 Q 12.866854,8.761442 12.268345,8.792372 12.089302,8.801672 11.99047,8.679281 11.89135,8.551416 11.866672,8.087225 L 11.81322,7.0814803 q -0.135377,0.4447558 -0.415162,0.874809 z m 1.025374,-2.0367556 q 0.620857,-1.251158 0.806631,-1.8093403 0.190596,-0.5639768 0.169156,-0.9673807 -0.03289,-0.6189191 -0.385861,-0.6006786 -0.322274,0.016655 -0.526503,0.4206378 -0.199112,0.403719 -0.16328,1.0778995 z"
       style="font-style:normal;font-variant:normal;font-weight:normal;font-stretch:normal;font-size:29.73661041px;line-height:18.58538246px;font-family:'French Script MT';-inkscape-font-specification:'French Script MT, Normal';font-variant-ligatures:normal;font-variant-caps:normal;font-variant-numeric:normal;font-feature-settings:normal;text-align:start;letter-spacing:0px;word-spacing:0px;writing-mode:lr-tb;text-anchor:start;display:inline;fill:#000000;fill-opacity:1;stroke:none;stroke-width:0.27259386"
       class="parts part-1"
       inkscape:connector-curvature="0"
       id="path6296" />
    <g
       class="draw-parts"
       id="g6300">
      <path
         style="fill:none;stroke:#000000;stroke-width:0.18897638;stroke-linecap:butt;stroke-linejoin:miter;stroke-miterlimit:4;stroke-dasharray:none;stroke-opacity:1"
         d="m 11.398993,7.6617835 c 0.104353,-0.3308093 0.601528,-1.1441012 0.876257,-1.728862 0.315738,-0.6720491 0.69812,-1.2333038 0.886523,-2.0435603 0.08123,-0.3493386 0.263402,-0.7570973 0.176659,-1.1274916 -0.03891,-0.1661326 -0.129926,-0.3769119 -0.295546,-0.4179423 -0.262065,-0.064923 -0.611264,0.1719969 -0.722285,0.3665269 -0.407708,0.714387 -0.467048,1.4276856 -0.460702,1.750646 0.03293,1.6758056 0.199597,2.6959973 0.250196,3.8524093 0.01367,0.312345 0.233276,0.2072904 0.369651,0.1863004 0.392645,-0.060433 0.859753,-0.8376159 0.853729,-0.831592"
         class="draw"
         inkscape:connector-curvature="0"
         sodipodi:nodetypes="casaasssac"
         id="path6298" />
      <path
         id="path6847"
         sodipodi:nodetypes="cssaassac"
         inkscape:connector-curvature="0"
         class="draw"
         d="M 11.542624,7.6838806 C 11.833269,7.1088289 12.470341,5.5811063 13.106531,4.3147301 13.3213,3.8872189 13.598707,2.9733332 13.415772,2.4801317 13.361337,2.3333717 13.20815,2.2247461 13.059458,2.2058205 c -0.215937,-0.027485 -0.434041,0.1160689 -0.60075,0.2560415 -0.300993,0.2527207 -0.54525,0.6076272 -0.643003,0.9882965 -0.35334,1.3759857 0.122935,3.8245924 0.16939,4.988351 0.01247,0.3123951 0.248529,0.2713886 0.408714,0.2566129 0.464703,-0.042865 1.035534,-0.9548034 1.02951,-0.9487795"
         style="fill:none;stroke:#000000;stroke-width:0.18897638;stroke-linecap:butt;stroke-linejoin:miter;stroke-miterlimit:4;stroke-dasharray:none;stroke-opacity:1" />
      <path
         id="path7423"
         sodipodi:nodetypes="casaassscc"
         inkscape:connector-curvature="0"
         class="draw"
         d="m 11.398993,7.6617835 c 0.104353,-0.3308093 0.601528,-1.1441012 0.876257,-1.728862 0.315738,-0.6720491 0.69812,-1.2333038 0.886523,-2.0435603 0.08123,-0.3493386 0.201705,-0.7445809 0.114159,-1.1040541 -0.03575,-0.1467755 -0.103993,-0.3354153 -0.248671,-0.3788798 -0.245585,-0.073779 -0.595639,0.1094969 -0.70666,0.3040269 -0.407708,0.714387 -0.263373,1.2285035 -0.26539,1.8522085 -0.0031,0.9703061 0.08027,1.8588345 0.139874,2.86251 0.02279,0.383767 0.04412,0.5355958 0.104026,0.9206754 0.325531,0.1507046 1.040388,-0.6836541 1.034364,-0.6776302"
         style="fill:none;stroke:#000000;stroke-width:0.18897638;stroke-linecap:butt;stroke-linejoin:miter;stroke-miterlimit:4;stroke-dasharray:none;stroke-opacity:1" />
      <path
         style="fill:none;stroke:#000000;stroke-width:0.18897638;stroke-linecap:butt;stroke-linejoin:miter;stroke-miterlimit:4;stroke-dasharray:none;stroke-opacity:1"
         d="m 11.398993,7.6617835 c 0.104353,-0.3308093 0.601528,-1.1441012 0.876257,-1.728862 0.315738,-0.6720491 0.69812,-1.2333038 0.886523,-2.0435603 0.08123,-0.3493386 0.201705,-0.7445809 0.114159,-1.1040541 -0.03575,-0.1467755 -0.103993,-0.3354153 -0.248671,-0.3788798 -0.245585,-0.073779 -0.595639,0.1094969 -0.70666,0.3040269 -0.407708,0.714387 -0.16946,1.4273773 -0.171477,2.0510823 -0.0031,0.9703061 0.04712,1.665485 0.106728,2.6691605 0.02279,0.383767 0.03307,0.4858773 0.09298,0.8709569 0.325531,0.1507046 0.99067,-0.6394599 0.984646,-0.633436"
         class="draw"
         inkscape:connector-curvature="0"
         sodipodi:nodetypes="casaassscc"
         id="path7425" />
    </g>
  </g>
  <g
     id="Letteri">
    <path
       d="M 13.931344,4.8339678 13.655493,5.436823 13.181784,5.0155461 13.466197,4.4286873 Z m 1.45953,2.6819196 q -0.209986,0.5688367 -0.47919,0.9110987 -0.269204,0.342261 -0.524373,0.404079 -0.287081,0.06945 -0.392859,-0.07949 -0.105794,-0.149029 -0.184757,-0.569566 L 13.612824,7.1335436 q -0.07934,0.4950245 -0.311858,1.0030715 L 13.109125,8.0325161 Q 13.463976,7.1696072 13.48194,6.4364986 l 0.474272,-0.4341038 0.342898,1.8261593 q 0.06382,0.339885 0.110951,0.442896 0.05245,0.101738 0.169402,0.0734 0.239219,-0.05796 0.62912,-0.9413943 z"
       style="font-style:normal;font-variant:normal;font-weight:normal;font-stretch:normal;font-size:29.73661041px;line-height:18.58538246px;font-family:'French Script MT';-inkscape-font-specification:'French Script MT, Normal';font-variant-ligatures:normal;font-variant-caps:normal;font-variant-numeric:normal;font-feature-settings:normal;text-align:start;letter-spacing:0px;word-spacing:0px;writing-mode:lr-tb;text-anchor:start;display:inline;fill:#000000;fill-opacity:1;stroke:none;stroke-width:0.28970966"
       id="path5299"
       class="parts part-1"
       inkscape:connector-curvature="0" />
    <g
       class="draw-parts"
       id="g8055">
      <path
         style="fill:none;stroke:#000000;stroke-width:0.25;stroke-linecap:butt;stroke-linejoin:miter;stroke-miterlimit:4;stroke-dasharray:none;stroke-opacity:1"
         d="m 13.217178,7.9926936 c 0.129867,-0.2746613 0.325849,-0.9158119 0.389762,-1.5015075 0.107807,-0.012721 -0.100977,0.013928 0.231832,-0.2229465 -0.0062,0.069016 0.0189,0.00574 0.05119,0.054949 0.046,0.070078 0.08706,0.2652047 0.112908,0.498507 0.0451,0.4071089 0.144945,0.9025391 0.249929,1.4089147 0.03129,0.1509306 0.180898,0.2888095 0.409834,0.2141724 0.228935,-0.074637 0.668151,-0.9979756 0.668151,-0.9979756"
         class="draw"
         inkscape:connector-curvature="0"
         sodipodi:nodetypes="cccssszc"
         id="path9226" />
      <path
         sodipodi:nodetypes="cccssszc"
         inkscape:connector-curvature="0"
         class="draw"
         d="m 13.217178,7.9926936 c 0.129867,-0.2746613 0.325849,-0.9158119 0.389762,-1.5015075 0.107807,-0.012721 -0.100977,0.013928 0.231832,-0.2229465 -0.0062,0.069016 0.0189,0.00574 0.05119,0.054949 0.046,0.070078 -0.150484,0.3425445 -0.124636,0.5758468 0.0451,0.4071089 0.183614,0.9522576 0.288599,1.4586332 0.03129,0.1509306 0.214044,0.3827217 0.44298,0.3080807 0.228935,-0.074637 0.833879,-1.2189465 0.833879,-1.2189465"
         style="fill:none;stroke:#000000;stroke-width:0.25;stroke-linecap:butt;stroke-linejoin:miter;stroke-miterlimit:4;stroke-dasharray:none;stroke-opacity:1"
         id="path9228" />
      <path
         style="fill:none;stroke:#000000;stroke-width:0.25;stroke-linecap:butt;stroke-linejoin:miter;stroke-miterlimit:4;stroke-dasharray:none;stroke-opacity:1"
         d="m 13.217178,7.9926936 c 0.129867,-0.2746613 0.325849,-0.9158119 0.389762,-1.5015075 0.107807,-0.012721 -0.100977,0.013928 0.231832,-0.2229465 -0.0062,0.069016 0.0189,0.00574 0.05119,0.054949 0.046,0.070078 -0.205727,0.4254086 -0.179879,0.6587109 0.0451,0.4071089 0.161516,0.919112 0.266502,1.4254876 0.03129,0.1509306 0.125656,0.3937702 0.354592,0.3191292 0.228935,-0.074637 0.999607,-1.2797135 0.999607,-1.2797135"
         class="draw"
         inkscape:connector-curvature="0"
         sodipodi:nodetypes="cccssszc"
         id="path9230" />
    </g>
  </g>
  <g
     id="Lettern">
    <path
       d="M 19.045614,7.544733 Q 18.428113,8.6514191 17.814962,8.683105 17.614293,8.6935395 17.501026,8.5604514 17.387437,8.4214128 17.360554,7.9156033 L 17.287267,6.536678 q -0.01696,-0.3191405 -0.200908,-0.3096342 -0.08918,0.00461 -0.185678,0.082054 -0.09092,0.077162 -0.194719,0.2274315 -0.104122,0.1442586 -0.292761,0.4860991 -0.183388,0.3355336 -0.181468,0.3716643 l 0.05761,1.0838723 -0.536926,0.4141832 -0.10753,-2.0232326 Q 15.49737,7.3537443 15.172128,7.8596378 l -0.1808,-0.1416106 q 0.517538,-0.884152 0.625983,-1.578094 l 0.531219,-0.3112401 0.05953,1.120003 q 0.372987,-0.6593047 0.612299,-0.8890441 0.239312,-0.2297393 0.495723,-0.2429912 0.23411,-0.012061 0.371917,0.1619282 0.137803,0.1740174 0.175567,0.8845545 l 0.04289,0.8068847 q 0.01728,0.3251641 0.04599,0.4444353 0.03427,0.1189947 0.145754,0.1132354 0.273131,-0.014121 0.766319,-0.8305888 z"
       style="font-style:normal;font-variant:normal;font-weight:normal;font-stretch:normal;font-size:29.73661041px;line-height:18.58538246px;font-family:'French Script MT';-inkscape-font-specification:'French Script MT, Normal';font-variant-ligatures:normal;font-variant-caps:normal;font-variant-numeric:normal;font-feature-settings:normal;text-align:start;letter-spacing:0px;word-spacing:0px;writing-mode:lr-tb;text-anchor:start;display:inline;fill:#000000;fill-opacity:1;stroke:none;stroke-width:0.29703361"
       class="parts part-1"
       inkscape:connector-curvature="0"
       id="path9833" />
    <g
       class="draw-parts"
       id="g9835">
      <path
         style="fill:none;stroke:#000000;stroke-width:0.30000001;stroke-linecap:butt;stroke-linejoin:miter;stroke-miterlimit:4;stroke-dasharray:none;stroke-opacity:1"
         d="m 15.208583,7.4034558 c 0.40625,-0.84375 0.39716,-0.8072488 0.529421,-1.1663939 0.320324,-0.1897257 0.171589,-0.08444 0.303751,-0.15658 l 0.166137,2.4571085 -0.08395,-1.2478042 c 0,0 0.66572,-1.4414197 1.257874,-1.3125998 0.76376,0.1661519 0.0069,1.9182052 0.656841,2.3404769 0.354827,0.2305201 0.825858,-0.9205532 0.825858,-0.9205532"
         class="draw"
         inkscape:connector-curvature="0"
         sodipodi:nodetypes="cccccssc"
         id="path10423" />
      <path
         id="path10971"
         sodipodi:nodetypes="cccccssc"
         inkscape:connector-curvature="0"
         class="draw"
         d="m 15.251552,7.4112683 c 0.349782,-0.6014836 0.336342,-0.5168848 0.548475,-0.7686511 0,0 0.03433,0.9089284 0.09203,1.9935099 0.143701,-0.077457 -0.02316,-0.053922 0.253636,-0.1955874 -0.01227,-0.2822906 -0.08805,-1.0623652 -0.08805,-1.0623652 0,0 0.499901,-1.2870331 1.074165,-1.2369256 0.707958,0.061773 0.05221,1.9024635 0.711529,2.3170394 0.358203,0.2252371 1.099295,-0.9596157 1.099295,-0.9596157"
         style="fill:none;stroke:#000000;stroke-width:0.30000001;stroke-linecap:butt;stroke-linejoin:miter;stroke-miterlimit:4;stroke-dasharray:none;stroke-opacity:1" />
      <path
         style="fill:none;stroke:#000000;stroke-width:0.30000001;stroke-linecap:butt;stroke-linejoin:miter;stroke-miterlimit:4;stroke-dasharray:none;stroke-opacity:1"
         d="m 15.251552,7.4112683 c 0.349782,-0.6014836 0.336342,-0.5168848 0.548475,-0.7686511 0,0 0.03433,0.9089284 0.09203,1.9935099 0.143701,-0.077457 -0.02316,-0.053922 0.253636,-0.1955874 -0.01227,-0.2822906 -0.08805,-1.0623652 -0.08805,-1.0623652 0,0 0.564349,-1.4326015 1.074165,-1.2369256 0.649484,0.2492825 0.03379,1.2554212 0.500592,2.3014144 0.21911,0.4909717 1.310232,-0.9439907 1.310232,-0.9439907"
         class="draw"
         inkscape:connector-curvature="0"
         sodipodi:nodetypes="cccccssc"
         id="path10973" />
    </g>
  </g>
  <g
     id="Letterd">
    <path
       d="m 19.465443,3.1437627 c -0.01403,-0.2640644 0.04705,-0.4755812 0.183266,-0.6345507 0.136207,-0.1589661 0.318519,-0.2443513 0.546932,-0.2561553 0.492895,-0.025472 0.944066,0.2225135 1.353516,0.7439559 0.413458,0.5212351 0.642619,1.2039215 0.687484,2.0480592 0.04924,0.9263919 -0.115728,1.7162633 -0.494888,2.3696143 C 21.362366,8.0637115 20.908192,8.4018926 20.379232,8.429228 20.082696,8.444553 19.837084,8.359579 19.642397,8.1743025 19.447477,7.9846955 19.342655,7.7513668 19.327931,7.4743151 l -0.01208,-0.2272659 c -0.0064,-0.1212083 -0.0068,-0.2014999 -7.67e-4,-0.2408747 L 19.055353,7.4493386 18.849058,7.3102398 c 0.719258,-1.3611188 1.427519,-2.0596949 2.124784,-2.0957275 0.372678,-0.019262 0.668171,0.1347622 0.88648,0.4620646 0.01391,-0.1917137 0.01627,-0.3741505 0.007,-0.5473097 C 21.836555,4.5491937 21.642185,4.029659 21.284272,3.5706633 20.926363,3.1116704 20.527007,2.893564 20.086205,2.9163439 19.861798,2.9279413 19.654867,3.0037474 19.465414,3.143764 Z m 1.207178,4.7949835 C 20.977171,7.9230079 21.242925,7.744323 21.469883,7.4026911 21.700618,7.0565266 21.805518,6.6864775 21.784581,6.2925439 21.770775,6.0328087 21.689837,5.8329734 21.541761,5.6930396 21.39746,5.5485662 21.209098,5.4823357 20.976677,5.4943471 c -0.308558,0.015942 -0.572884,0.1837036 -0.792978,0.5032764 -0.220094,0.3195728 -0.320363,0.6633387 -0.300806,1.0312983 0.01495,0.2813773 0.09527,0.5072896 0.24095,0.6777369 0.145449,0.1661148 0.328375,0.2434772 0.548778,0.2320875 z"
       style="font-style:normal;font-variant:normal;font-weight:normal;font-stretch:normal;font-size:29.73661041px;line-height:18.58538246px;font-family:'French Script MT';-inkscape-font-specification:'French Script MT, Normal';font-variant-ligatures:normal;font-variant-caps:normal;font-variant-numeric:normal;font-feature-settings:normal;text-align:start;letter-spacing:0px;word-spacing:0px;writing-mode:lr-tb;text-anchor:start;display:inline;fill:#000000;fill-opacity:1;stroke:none;stroke-width:0.32031032"
       class="parts part-1"
       id="path4529" />
    <g
       class="draw-parts"
       id="g12229">
      <path
         style="fill:none;stroke:#000000;stroke-width:0.24300002;stroke-linecap:butt;stroke-linejoin:miter;stroke-miterlimit:4;stroke-dasharray:none;stroke-opacity:1"
         d="m 1459.1821,-1432.9806 c 0,0 0.3646,-0.6811 0.6275,-0.9578 0.2634,-0.2771 0.5551,-0.5838 0.9259,-0.6767 0.2409,-0.061 0.4643,-0.01 0.7378,0.1039 0.5963,0.2463 0.4053,1.0833 0.2146,1.5528 -0.1949,0.4801 -0.7454,0.978 -1.288,0.9973 -0.3141,0.012 -0.6965,-0.2213 -0.7845,-0.523 -0.06,-0.2091 -0.1193,-0.482 -0.055,-0.7108 0.1457,-0.5184 0.503,-1.0403 0.9457,-1.3101 0.3757,-0.2289 0.5658,-0.1684 1.3175,0.081 -0.025,-0.2214 -0.074,-1.0454 -0.3158,-1.493 -0.2131,-0.3948 -0.5267,-0.8021 -0.9485,-0.9553 -0.2711,-0.098 -0.6115,0.02 -0.8616,0.079 0.019,-0.2482 0.2752,-0.4552 0.2752,-0.4552"
         class="draw"
         id="path12227" />
      <path
         id="path12776"
         sodipodi:nodetypes="caassaaaccaac"
         inkscape:connector-curvature="0"
         class="draw"
         d="m 1458.8645,-1432.6029 c 0,0 0.4501,-0.8408 0.7747,-1.1824 0.3251,-0.3421 0.6819,-0.7354 1.1431,-0.8355 0.2956,-0.064 0.6791,-0.034 0.8887,0.1837 0.556,0.5787 0.4406,1.4235 0.1103,2.0052 -0.2666,0.4697 -0.8624,0.8248 -1.4023,0.8115 -0.2878,-0.01 -0.6325,-0.1965 -0.7254,-0.469 -0.2735,-0.8014 0.1151,-1.9669 0.8455,-2.3954 0.4874,-0.2859 0.9526,-0.5615 1.6707,0.2874 -0.01,-0.078 0.134,0.2876 0.1254,-0.046 -0.01,-0.3339 0.037,-1.3618 -0.25,-1.9515 -0.2915,-0.5989 -0.7889,-1.1651 -1.4031,-1.4225 -0.2795,-0.1171 -0.6003,-0.076 -0.909,0"
         style="fill:none;stroke:#000000;stroke-width:0.30000001;stroke-linecap:butt;stroke-linejoin:miter;stroke-miterlimit:4;stroke-dasharray:none;stroke-opacity:1" />
      <path
         style="fill:none;stroke:#000000;stroke-width:0.30000001;stroke-linecap:butt;stroke-linejoin:miter;stroke-miterlimit:4;stroke-dasharray:none;stroke-opacity:1"
         d="m 1458.8645,-1432.6029 c 0,0 0.4501,-0.8408 0.7747,-1.1824 0.3251,-0.3421 0.6819,-0.7354 1.1431,-0.8355 0.2956,-0.064 0.6791,-0.034 0.8887,0.1837 0.556,0.5787 0.4406,1.4235 0.1103,2.0052 -0.2666,0.4697 -0.8806,0.814 -1.3945,0.7177 -0.3352,-0.063 -0.6193,-0.4299 -0.6786,-0.7658 -0.1248,-0.7074 0.1647,-1.6526 0.7909,-2.0048 0.4925,-0.277 0.9526,-0.5615 1.6707,0.2874 -0.01,-0.078 0.1106,0.5923 0.102,0.2584 -0.01,-0.3339 0.079,-1.6283 -0.2266,-2.3557 -0.2658,-0.6332 -0.7032,-1.2873 -1.3258,-1.5771 -0.2655,-0.1236 -0.5701,-0.074 -0.8787,3e-4"
         class="draw"
         inkscape:connector-curvature="0"
         sodipodi:nodetypes="caassaaaccaac"
         id="path12780" />
    </g>
  </g>
  <g
     id="Lettere">
    <path
       style="font-style:normal;font-variant:normal;font-weight:normal;font-stretch:normal;font-size:29.73661041px;line-height:18.58538246px;font-family:'French Script MT';-inkscape-font-specification:'French Script MT, Normal';font-variant-ligatures:normal;font-variant-caps:normal;font-variant-numeric:normal;font-feature-settings:normal;text-align:start;letter-spacing:0px;word-spacing:0px;writing-mode:lr-tb;text-anchor:start;display:inline;fill:#000000;fill-opacity:1;stroke:none;stroke-width:0.41189879"
       d="m 25.451857,4.9121571 c -0.381329,0.01971 -0.744461,0.199747 -1.088019,0.541257 -0.318136,0.310819 -0.757556,0.945463 -1.308192,1.875136 -0.461101,0.665536 -1.034066,1.105586 -1.722849,1.312779 l 0.07981,0.188064 c 0.711871,-0.126358 1.300814,-0.497608 1.769637,-1.110036 l 0.0083,0.0055 c 0.01823,-0.03273 0.05818,-0.09321 0.07981,-0.130269 0.110546,-0.157102 0.21675,-0.324029 0.312828,-0.510066 -0.01263,0.151365 -0.01628,0.293898 -0.0092,0.427502 0.02663,0.501002 0.171783,0.884844 0.433924,1.1504 0.266998,0.259721 0.614441,0.37805 1.042149,0.355946 0.587453,-0.03036 1.054688,-0.174075 1.402683,-0.432088 0.347699,-0.263577 0.659186,-0.670925 0.934815,-1.22104 l -0.242202,-0.18806 c -0.222964,0.374353 -0.479032,0.664047 -0.767852,0.868763 -0.283667,0.204447 -0.546757,0.312239 -0.788952,0.324755 -0.505005,0.0261 -0.847342,-0.156964 -1.028388,-0.549514 1.14278,-0.76239 1.694342,-1.505576 1.65588,-2.229246 -0.01124,-0.211538 -0.08953,-0.379988 -0.235768,-0.506397 -0.141079,-0.12668 -0.317138,-0.184305 -0.528414,-0.173386 z m -0.355028,0.478875 c 0.144288,-0.0075 0.260535,0.03885 0.348607,0.14036 0.09322,0.101238 0.144328,0.235729 0.153203,0.402733 0.02929,0.551103 -0.371244,1.074534 -1.202692,1.569646 -8.88e-4,-0.0167 -0.02598,-0.09145 -0.07431,-0.222925 -0.04862,-0.137035 -0.07834,-0.305075 -0.08899,-0.505479 -0.01953,-0.3674 0.05372,-0.686791 0.220173,-0.95775 0.166451,-0.270957 0.381197,-0.413004 0.644004,-0.426585 z"
       class="parts part-1"
       inkscape:connector-curvature="0"
       id="path4686" />
    <g
       class="draw-parts"
       id="g4696">
      <path
         style="fill:none;stroke:#000000;stroke-width:0.3023622;stroke-linecap:butt;stroke-linejoin:miter;stroke-miterlimit:4;stroke-dasharray:none;stroke-opacity:1"
         d="m 21.332797,8.6413291 c 0.144743,0.1148545 0.828222,-0.1582595 1.161206,-0.3956051 1.019393,-0.7266069 1.768404,-2.6632758 2.304484,-2.9653728 0.65337,-0.3681941 1.021819,-0.2601168 1.230672,0.09436 0.32071,0.5443282 -0.150157,1.0700589 -0.486356,1.4556666 -0.103226,0.1183973 -0.848571,0.5016561 -1.097019,0.8464429 -0.447321,-0.1082036 -0.219998,-1.074703 -0.359522,-1.4078329 -0.526896,0.1620063 -0.535268,1.7174753 -0.0058,2.2474748 0.524595,0.5251157 1.545618,0.3929543 2.226769,-0.00353 0.454065,-0.2643022 0.911091,-0.9690901 1.080316,-1.14769"
         class="draw"
         inkscape:connector-curvature="0"
         sodipodi:nodetypes="casssccasc"
         id="path4688" />
      <path
         sodipodi:nodetypes="csassscsssc"
         inkscape:connector-curvature="0"
         class="draw"
         d="m 21.332797,8.6413291 c 0.144743,0.1148545 0.785701,-0.2174432 1.104623,-0.482883 0.390318,-0.3248637 0.798626,-1.0232327 1.19329,-1.5384322 0.244274,-0.3188778 0.531381,-0.7252076 0.72704,-0.9610341 0.424347,-0.5114599 1.04778,-0.5278819 1.395195,-0.2290259 0.340483,0.2928926 -0.06876,1.0006578 -0.293006,1.4114724 -0.271334,0.4970785 -0.981154,0.8275882 -1.229602,1.172375 -0.447321,-0.1082036 -0.07568,-1.6363646 -0.226939,-1.308396 -0.285511,0.6190633 -0.190492,0.9401717 0.193074,1.4851253 0.427223,0.606981 1.37989,0.4868669 2.061041,0.090383 0.454065,-0.2643022 0.850324,-0.8586047 1.019549,-1.0372046"
         style="fill:none;stroke:#000000;stroke-width:0.30244443;stroke-linecap:butt;stroke-linejoin:miter;stroke-miterlimit:4;stroke-dasharray:none;stroke-opacity:1"
         id="path4690" />
      <path
         style="fill:none;stroke:#000000;stroke-width:0.3023622;stroke-linecap:butt;stroke-linejoin:miter;stroke-miterlimit:4;stroke-dasharray:none;stroke-opacity:1"
         d="m 21.332797,8.6413291 c 0.144743,0.1148545 0.785701,-0.2174432 1.104623,-0.482883 0.390318,-0.3248637 0.787456,-1.0319843 1.19329,-1.5384322 0.11559,-0.1442473 0.28653,-0.1446444 0.415444,-0.2997479 0.174431,-0.2098677 0.304048,-0.5698742 0.416557,-0.7054804 0.424346,-0.511461 0.83137,-0.4139829 1.096884,-0.1572103 0.341555,0.3303091 0.06935,1.006182 -0.154899,1.4169966 -0.271334,0.4970785 -0.931435,0.6839572 -1.179883,1.028744 -0.447321,-0.1082036 -0.07016,-1.5258792 -0.221415,-1.1979106 -0.285511,0.6190633 -0.07341,0.8313263 0.402996,1.2973001 0.777887,0.7608473 1.087104,0.448197 1.851119,0.2782082 0.512846,-0.1141051 0.850324,-0.8586047 1.019549,-1.0372046"
         class="draw"
         inkscape:connector-curvature="0"
         sodipodi:nodetypes="cssssascsssc"
         id="path4692" />
      <path
         sodipodi:nodetypes="cssssascsssc"
         inkscape:connector-curvature="0"
         class="draw"
         d="m 21.332797,8.6413291 c 0.144743,0.1148545 0.785701,-0.2174432 1.104623,-0.482883 0.390318,-0.3248637 0.787456,-1.0319843 1.19329,-1.5384322 0.11559,-0.1442473 0.28653,-0.1446444 0.415444,-0.2997479 0.174431,-0.2098677 0.304048,-0.5698742 0.416557,-0.7054804 0.424346,-0.511461 0.83137,-0.4139829 1.096884,-0.1572103 0.341555,0.3303091 0.06935,1.006182 -0.154899,1.4169966 -0.271334,0.4970785 -0.931435,0.6839572 -1.179883,1.028744 -0.447321,-0.1082036 -0.07016,-1.5258792 -0.221415,-1.1979106 -0.285511,0.6190633 -0.03474,0.7871321 0.441666,1.2531059 0.777887,0.7608473 1.048434,0.4923912 1.812449,0.3224024 0.512846,-0.1141051 0.850324,-0.8586047 1.019549,-1.0372046"
         style="fill:none;stroke:#000000;stroke-width:0.3023622;stroke-linecap:butt;stroke-linejoin:miter;stroke-miterlimit:4;stroke-dasharray:none;stroke-opacity:1"
         id="path4694" />
    </g>
  </g>
</svg>
