<?xml version="1.0" encoding="UTF-8" standalone="no"?>
<!-- Created with Inkscape (http://www.inkscape.org/) -->

<svg
   xmlns:dc="http://purl.org/dc/elements/1.1/"
   xmlns:cc="http://creativecommons.org/ns#"
   xmlns:rdf="http://www.w3.org/1999/02/22-rdf-syntax-ns#"
   xmlns:svg="http://www.w3.org/2000/svg"
   xmlns="http://www.w3.org/2000/svg"
   xmlns:sodipodi="http://sodipodi.sourceforge.net/DTD/sodipodi-0.dtd"
   xmlns:inkscape="http://www.inkscape.org/namespaces/inkscape"
   width="210mm"
   height="297mm"
   viewBox="0 0 210 297"
   version="1.1"
   id="svg5483"
   inkscape:version="0.92.0 r15299"
   sodipodi:docname="Title.svg">
  <defs
     id="defs5477">
    <marker
       inkscape:stockid="StopL"
       orient="auto"
       refY="0.0"
       refX="0.0"
       id="StopL"
       style="overflow:visible"
       inkscape:isstock="true">
      <path
         id="path4677"
         d="M 0.0,5.65 L 0.0,-5.65"
         style="fill:none;fill-opacity:0.75;fill-rule:evenodd;stroke:#cf0000;stroke-width:1pt;stroke-opacity:1"
         transform="scale(0.8)" />
    </marker>
    <marker
       inkscape:stockid="Arrow1Lstart"
       orient="auto"
       refY="0.0"
       refX="0.0"
       id="marker4800"
       style="overflow:visible"
       inkscape:isstock="true">
      <path
         id="path4798"
         d="M 0.0,0.0 L 5.0,-5.0 L -12.5,0.0 L 5.0,5.0 L 0.0,0.0 z "
         style="fill-rule:evenodd;stroke:#cf0000;stroke-width:1pt;stroke-opacity:1;fill:#cf0000;fill-opacity:1"
         transform="scale(0.8) translate(12.5,0)" />
    </marker>
    <marker
       inkscape:stockid="SquareL"
       orient="auto"
       refY="0.0"
       refX="0.0"
       id="SquareL"
       style="overflow:visible"
       inkscape:isstock="true">
      <path
         id="path4578"
         d="M -5.0,-5.0 L -5.0,5.0 L 5.0,5.0 L 5.0,-5.0 L -5.0,-5.0 z "
         style="fill-rule:evenodd;stroke:#cf0000;stroke-width:1pt;stroke-opacity:1;fill:#cf0000;fill-opacity:1"
         transform="scale(0.8)" />
    </marker>
    <marker
       inkscape:stockid="Arrow1Lstart"
       orient="auto"
       refY="0.0"
       refX="0.0"
       id="Arrow1Lstart"
       style="overflow:visible"
       inkscape:isstock="true">
      <path
         id="path4508"
         d="M 0.0,0.0 L 5.0,-5.0 L -12.5,0.0 L 5.0,5.0 L 0.0,0.0 z "
         style="fill-rule:evenodd;stroke:#cf0000;stroke-width:1pt;stroke-opacity:1;fill:#cf0000;fill-opacity:1"
         transform="scale(0.8) translate(12.5,0)" />
    </marker>
  </defs>
  <sodipodi:namedview
     id="base"
     pagecolor="#ffffff"
     bordercolor="#666666"
     borderopacity="1.0"
     inkscape:pageopacity="0.0"
     inkscape:pageshadow="2"
     inkscape:zoom="4"
     inkscape:cx="125.69652"
     inkscape:cy="962.39687"
     inkscape:document-units="mm"
     inkscape:current-layer="Title"
     showgrid="false"
     inkscape:window-width="1280"
     inkscape:window-height="961"
     inkscape:window-x="-8"
     inkscape:window-y="12"
     inkscape:window-maximized="1" />
  <metadata
     id="metadata5480">
    <rdf:RDF>
      <cc:Work
         rdf:about="">
        <dc:format>image/svg+xml</dc:format>
        <dc:type
           rdf:resource="http://purl.org/dc/dcmitype/StillImage" />
        <dc:title />
      </cc:Work>
    </rdf:RDF>
  </metadata>
  <g
     inkscape:label="Title"
     inkscape:groupmode="layer"
     id="Title">
    <g
       id="LetterB"
       transform="matrix(8,0,0,8,-16.860811,-13.993504)">
      <path
         class="parts part-2"
         inkscape:connector-curvature="0"
         d="m 6.4288127,5.1598991 q 1.13291,0.28576 1.19965,1.54163 0.0413,0.7761 -0.31166,1.36503 -0.35317,0.5842402 -0.87131,0.6110102 -0.56603,0.0293 -0.83811,-0.48965 0.0782,-0.0889 0.41245,-0.2901602 0.0368,0.0358 0.047,0.0636 0.12515,0.4651902 0.51702,0.4449402 0.31349,-0.0162 0.50885,-0.3658902 0.1951,-0.35439 0.16535,-0.91412 -0.0388,-0.72906 -0.4367,-1.15185 -0.39385,-0.42771 -1.00342,-0.39621 l -0.0219,-0.0838 q 0.36185,-0.17434 0.56391,-0.56211 0.20642,-0.38799 0.18442,-0.8019 -0.0323,-0.60677 -0.49041,-1.0123 -0.45381,-0.40575 -1.07645,-0.37357 -0.93178,0.0482 -1.64169,0.82062 -0.70555,0.77223 -0.65656,1.69414 0.0235,0.44214 0.22523,0.70528 0.20147,0.25843 0.49755,0.24313 0.34833,-0.018 0.62052,-0.56504 l 0.0944,0.0517 q -0.11273,0.42559 -0.36198,0.66487 -0.24925,0.23927 -0.5671,0.2557 -0.34397,0.0178 -0.57233,-0.25341 -0.22399,-0.27142 -0.24774,-0.71827 -0.0388,-0.72905 0.35306,-1.4898 0.39181,-0.76074 1.08214,-1.24449 0.69443,-0.48867 1.47817,-0.52917 0.70972,-0.0367 1.15382,0.35071 0.4482,0.38246 0.4837,1.05037 0.04,0.75258 -0.48994,1.37896 z"
         style="font-style:normal;font-variant:normal;font-weight:normal;font-stretch:normal;font-size:29.73661041px;line-height:18.58538246px;font-family:'French Script MT';-inkscape-font-specification:'French Script MT, Normal';font-variant-ligatures:normal;font-variant-caps:normal;font-variant-numeric:normal;font-feature-settings:normal;text-align:start;letter-spacing:0px;word-spacing:0px;writing-mode:lr-tb;text-anchor:start;display:inline;fill:#000000;fill-opacity:1;stroke:none;stroke-width:0.23202309"
         id="path4496" />
      <path
         inkscape:connector-curvature="0"
         class="parts part-1"
         d="m 5.6416227,3.3281191 q -0.27369,0.51881 -0.24169,1.12088 0.017,0.31984 0.14368,0.97833 0.13104,0.65825 0.14904,0.99692 0.052,0.97834 -0.44395,1.66901 -0.49596,0.6906602 -1.27099,0.7307102 -0.50508,0.0261 -0.85734,-0.27642 -0.35227,-0.30252 -0.44858,-0.8823902 0.23298,-0.13467 0.55914,-0.24114 l 0.0209,0.0649 q -0.0861,0.18839 -0.0753,0.39065 0.0165,0.3104402 0.25977,0.5336902 0.24327,0.22325 0.5916,0.20525 0.5312,-0.0275 0.86634,-0.5400002 0.3395,-0.51278 0.29575,-1.33591 -0.0138,-0.2587 -0.0843,-0.76444 -0.0705,-0.50574 -0.0838,-0.75504 -0.0647,-1.21823 0.54602,-1.96671 z"
         style="font-style:normal;font-variant:normal;font-weight:normal;font-stretch:normal;font-size:29.73661041px;line-height:18.58538246px;font-family:'French Script MT';-inkscape-font-specification:'French Script MT, Normal';font-variant-ligatures:normal;font-variant-caps:normal;font-variant-numeric:normal;font-feature-settings:normal;text-align:start;letter-spacing:0px;word-spacing:0px;writing-mode:lr-tb;text-anchor:start;display:inline;fill:#000000;fill-opacity:1;stroke:none;stroke-width:0.23202309"
         id="path4498" />
      <g
         class="draw-parts"
         id="g5664">
        <path
           style="opacity:1;fill:#000000;fill-opacity:0;fill-rule:evenodd;stroke:none;stroke-width:0.30000001;stroke-linecap:butt;stroke-linejoin:miter;stroke-miterlimit:4;stroke-dasharray:none;stroke-dashoffset:0;stroke-opacity:1;paint-order:fill markers stroke"
           inkscape:transform-center-x="0.011362496"
           inkscape:transform-center-y="-0.005053623"
           d="m 3.2518327,7.4889191 c -0.020571,0.024285 -0.019816,0.035619 -0.03677,0.09198 -0.012129,0.040321 -0.027228,0.1233479 -0.027228,0.1233479 L 3.1661735,7.5751728 2.6717927,7.6651591 c 0.2801697,-0.1543991 0.4315724,-0.1999277 0.55914,-0.24114 0.00975,0.019766 0.0209,0.0649 0.0209,0.0649 z"
           inkscape:connector-curvature="0"
           sodipodi:nodetypes="csccccc"
           class="display"
           id="path4499" />
        <path
           style="opacity:1;fill:none;stroke:#000000;stroke-width:0.15000001;stroke-linecap:butt;stroke-linejoin:miter;stroke-miterlimit:4;stroke-dasharray:none;stroke-opacity:0"
           d="m 3.1237988,7.5731057 c 0,0.024918 -0.044986,0.4032351 0.037075,0.5787944 0.078405,0.1677372 0.1582863,0.287558 0.2903792,0.3738875 C 3.6393095,8.6486921 3.8827451,8.7253462 4.1047226,8.6907532 4.419223,8.6417414 4.7036637,8.4239158 4.9155417,8.1863861 5.0379706,8.0491351 5.1025103,7.8649536 5.1517752,7.6877541 5.2462602,7.3479042 5.2728517,6.9957817 5.25732,6.6348111 5.2382047,6.1905528 5.1367844,5.8511136 5.1074544,5.4561515 5.0918407,5.2458951 5.089291,5.0345851 5.0936809,4.8237955 5.0967527,4.6762996 5.1217326,4.3821018 5.1217326,4.3821018"
           inkscape:connector-curvature="0"
           sodipodi:nodetypes="csaaaasaac"
           class="draw"
           id="path4501" />
        <path
           sodipodi:nodetypes="caasaaaac"
           inkscape:connector-curvature="0"
           d="m 2.8012514,7.6359265 c 0,0 0.091678,0.5456674 0.2750934,0.7299991 C 3.3136263,8.6043924 3.6828096,8.7399483 4.018947,8.7265102 4.364029,8.7127145 4.7235313,8.5374778 4.9539928,8.2802631 5.1544068,8.0565841 5.3506068,7.7888472 5.4565017,7.4974019 5.5751636,7.1708194 5.5863211,6.8107673 5.5878866,6.4632988 5.5891149,6.1906564 5.5309525,5.9208543 5.4921103,5.6509902 5.4420516,5.3031967 5.3612431,4.960153 5.3152901,4.6117932 5.3045826,4.5306216 5.2922908,4.3672481 5.2922908,4.3672481"
           style="opacity:1;fill:none;stroke:#000000;stroke-width:0.2;stroke-linecap:butt;stroke-linejoin:miter;stroke-miterlimit:4;stroke-dasharray:none;stroke-opacity:0"
           class="draw"
           id="path4503" />
        <path
           sodipodi:nodetypes="cccsaccc"
           inkscape:connector-curvature="0"
           d="M 5.3941246,4.3644438 5.1918909,4.3908716 5.0474187,4.3851426 C 5.0750037,4.2744015 5.1229622,4.1069663 5.2168838,3.859045 5.2725888,3.7120035 5.3391685,3.5904938 5.4159408,3.4649246 c 0.044863,-0.073378 0.099043,-0.1296132 0.1519719,-0.208513 0,0 0.091602,0.042471 0.07371,0.07171 C 5.4801665,3.5922991 5.4330372,4.1974831 5.3941246,4.3644438 Z"
           inkscape:transform-center-y="-0.027584295"
           inkscape:transform-center-x="-0.0035384976"
           style="opacity:1;fill:#000000;fill-opacity:0;fill-rule:evenodd;stroke:none;stroke-width:0.30000001;stroke-linecap:butt;stroke-linejoin:miter;stroke-miterlimit:4;stroke-dasharray:none;stroke-dashoffset:0;stroke-opacity:1;paint-order:fill markers stroke"
           class="display"
           id="path4505" />
        <path
           id="path4523"
           class="draw"
           style="opacity:1;fill:none;fill-opacity:1;stroke:#000000;stroke-width:0.2;stroke-linecap:butt;stroke-linejoin:miter;stroke-miterlimit:4;stroke-dasharray:none;stroke-opacity:0"
           d="m 3.0211192,7.6183869 c 0,0 -0.039164,0.5496596 0.1172373,0.7475387 C 3.3350393,8.6147682 3.7061051,8.7788235 4.018947,8.7265102 4.5620869,8.6356865 5.0060443,8.1252857 5.2609352,7.6371458 5.4586121,7.2585759 5.409776,6.7909381 5.4037212,6.363908 5.4002072,6.1160721 5.3246387,5.8742308 5.2999348,5.6276041 5.2661267,5.2900865 5.2132235,4.9499971 5.2392853,4.6117932 c 0.00641,-0.083161 0.053006,-0.2445451 0.053006,-0.2445451"
           inkscape:connector-curvature="0"
           sodipodi:nodetypes="caaaaaac" />
      </g>
    </g>
    <path
       d="m 72.168251,44.355289 q -3.61496,6.90312 -7.411759,7.09936 -1.42816,0.072 -2.09912,-0.7216 -0.6712,-0.7952 -0.84584,-3.427676 -1.942,2.892556 -3.36096,3.796 -1.38216,0.93928 -3.22832,1.03464 -2.68216,0.1384 -4.3904,-1.772884 -1.67352,-1.913356 -1.85152,-5.262316 l -0.0864,-1.61808 q -0.3552,0.5464 -1.63248,2.80112 l -1.195441,-0.80608 q 2.793281,-5.27592 6.018081,-8.34792 3.25768,-3.11152 5.80048,-3.24288 1.81128,-0.0936 3.64976,0.98104 l 2.97528,-1.85168 0.68,12.79376 q 0.108,2.032 0.304,2.43688 0.196,0.404796 0.96248,0.3656 0.661599,-0.032 1.917439,-1.382 1.25568,-1.34776 2.6972,-3.79944 z m -10.578399,0.0936 -0.4016,-7.56336 q -1.47536,-1.4708 -3.426,-1.37 -2.09,0.108 -3.64992,2.3016 -1.56,2.19368 -1.394,5.31688 0.144,2.70928 1.40824,4.1532 1.26232,1.40632 3.31752,1.30016 1.60232,-0.0832 2.8708,-1.84632 1.30128,-1.80296 1.27528,-2.29216 z"
       style="font-style:normal;font-variant:normal;font-weight:normal;font-stretch:normal;font-size:29.73661041px;line-height:18.58538246px;font-family:'French Script MT';-inkscape-font-specification:'French Script MT, Normal';font-variant-ligatures:normal;font-variant-caps:normal;font-variant-numeric:normal;font-feature-settings:normal;text-align:start;letter-spacing:0px;word-spacing:0px;writing-mode:lr-tb;text-anchor:start;display:inline;fill:#000000;fill-opacity:1;stroke:none;stroke-width:1.85618472"
       id="path6052"
       inkscape:connector-curvature="0" />
    <path
       d="m 72.168251,44.355289 q 0.608,-1.05016 1.08432,-1.94264 0.5096,-0.93192 1.00664,-2.0896 0.4952,-1.19528 1.0592,-3.07328 0.5968,-1.91744 0.5648,-2.51952 l -0.7736,-14.5624 q -0.2856,-5.38088 2.61696,-9.90784 2.90296,-4.5269604 6.31664,-4.7034404 1.81128,-0.0936 2.89344,1.2088803 1.11696,1.30064 1.23696,3.5584001 0.16,3.01032 -1.86696,8.24664 -2.02904,5.198641 -7.00984,14.662722 l 0.5776,10.874798 q 0.124,2.33296 0.344,3.18944 0.2184,0.8188 0.9496,0.7808 1.56752,-0.0808 4.7888,-5.1904 l 1.13184,0.92256 q -3.78912,6.91216 -7.86456,7.12272 -1.2192,0.064 -1.89216,-0.7704 -0.6752,-0.87064 -0.84296,-4.03152 l -0.364,-6.8484 q -0.92184,3.02848 -2.82696,5.95688 z m 6.98208,-13.868958 q 4.22768,-8.519601 5.49264,-12.320402 1.29784,-3.84032 1.15184,-6.58728 -0.224,-4.2144001 -2.62744,-4.0901601 -2.19448,0.1136 -3.58512,2.8642401 -1.35584,2.74904 -1.11184,7.33976 z"
       style="font-style:normal;font-variant:normal;font-weight:normal;font-stretch:normal;font-size:29.73661041px;line-height:18.58538246px;font-family:'French Script MT';-inkscape-font-specification:'French Script MT, Normal';font-variant-ligatures:normal;font-variant-caps:normal;font-variant-numeric:normal;font-feature-settings:normal;text-align:start;letter-spacing:0px;word-spacing:0px;writing-mode:lr-tb;text-anchor:start;display:inline;fill:#000000;fill-opacity:1;stroke:none;stroke-width:1.85618472"
       id="LetterL"
       inkscape:connector-curvature="0" />
    <path
       d="m 87.088731,43.810649 q 0.608,-1.05024 1.08432,-1.94264 0.5096,-0.93192 1.00664,-2.0896 0.4952,-1.19528 1.0592,-3.07328 0.5968,-1.91752 0.5648,-2.51952 l -0.7736,-14.5624 q -0.2856,-5.38096 2.61696,-9.9079201 2.90296,-4.5269603 6.31664,-4.7033603 1.811279,-0.0936 2.893439,1.20888 1.11696,1.3006403 1.23696,3.5583203 0.16,3.0103201 -1.86696,8.2466401 -2.029039,5.198721 -7.009839,14.662802 l 0.5776,10.874718 q 0.124,2.33304 0.344,3.18944 0.2184,0.81888 0.94968,0.7808 1.56752,-0.0808 4.788799,-5.1904 l 1.13184,0.92256 q -3.789199,6.91216 -7.864639,7.1228 -1.21912,0.064 -1.89208,-0.7704 -0.6752,-0.87072 -0.84304,-4.03152 l -0.364,-6.84848 q -0.92184,3.02848 -2.82696,5.95688 z m 6.98216,-13.868958 q 4.2276,-8.519602 5.49256,-12.320482 1.297839,-3.84032 1.151839,-6.5872 -0.224,-4.2144001 -2.627439,-4.0902401 -2.19448,0.1136 -3.58512,2.86432 -1.35584,2.7490401 -1.11184,7.3397601 z"
       style="font-style:normal;font-variant:normal;font-weight:normal;font-stretch:normal;font-size:29.73661041px;line-height:18.58538246px;font-family:'French Script MT';-inkscape-font-specification:'French Script MT, Normal';font-variant-ligatures:normal;font-variant-caps:normal;font-variant-numeric:normal;font-feature-settings:normal;text-align:start;letter-spacing:0px;word-spacing:0px;writing-mode:lr-tb;text-anchor:start;display:inline;fill:#000000;fill-opacity:1;stroke:none;stroke-width:1.85618472"
       id="path5297"
       inkscape:connector-curvature="0" />
    <path
       d="m 106.14545,21.850089 -1.76744,3.862561 -3.03504,-2.69912 1.82224,-3.760081 z m 9.35128,17.1832 q -1.34544,3.64464 -3.07024,5.83752 -1.7248,2.19288 -3.35968,2.58896 -1.83936,0.4448 -2.51704,-0.5096 -0.6776,-0.9548 -1.18376,-3.6492 l -1.26136,-6.7176 q -0.508,3.17168 -1.99808,6.42672 l -1.22912,-0.6672 q 2.27352,-5.52872 2.38864,-10.225758 l 3.03864,-2.78128 2.19696,11.700238 q 0.4088,2.17768 0.7112,2.83768 0.336,0.652 1.08536,0.4704 1.53272,-0.3712 4.0308,-6.0316 z"
       style="font-style:normal;font-variant:normal;font-weight:normal;font-stretch:normal;font-size:29.73661041px;line-height:18.58538246px;font-family:'French Script MT';-inkscape-font-specification:'French Script MT, Normal';font-variant-ligatures:normal;font-variant-caps:normal;font-variant-numeric:normal;font-feature-settings:normal;text-align:start;letter-spacing:0px;word-spacing:0px;writing-mode:lr-tb;text-anchor:start;display:inline;fill:#000000;fill-opacity:1;stroke:none;stroke-width:1.85618472"
       id="LetterI"
       inkscape:connector-curvature="0" />
    <path
       d="m 166.9341,36.827929 q -3.61496,6.90312 -7.41176,7.09936 -1.42816,0.072 -2.09912,-0.7216 -0.67121,-0.7952 -0.84585,-3.42768 -1.94192,2.89256 -3.36096,3.796 -1.38216,0.93928 -3.22824,1.03464 -2.68216,0.1384 -4.39048,-1.77288 -1.67344,-1.91336 -1.85144,-5.26232 l -0.0864,-1.61808 q -0.3552,0.5464 -1.63248,2.80112 l -1.19552,-0.80608 q 2.79328,-5.275918 6.01808,-8.347918 3.25768,-3.11152 5.80048,-3.242881 1.81128,-0.0936 3.64976,0.981041 l 2.97537,-1.851681 0.68,12.793839 q 0.108,2.03192 0.304,2.43688 0.196,0.4048 0.96248,0.3656 0.6616,-0.032 1.91744,-1.382 1.25568,-1.34776 2.69712,-3.79944 z m -10.57833,0.0936 -0.4024,-7.563358 q -1.47528,-1.4708 -3.426,-1.37 -2.08992,0.108 -3.64992,2.3016 -1.56,2.19368 -1.394,5.316878 0.144,2.70928 1.40832,4.1532 1.26232,1.40632 3.31744,1.30016 1.60232,-0.0832 2.8708,-1.84632 1.30136,-1.80296 1.27536,-2.29216 z"
       style="font-style:normal;font-variant:normal;font-weight:normal;font-stretch:normal;font-size:29.73661041px;line-height:18.58538246px;font-family:'French Script MT';-inkscape-font-specification:'French Script MT, Normal';font-variant-ligatures:normal;font-variant-caps:normal;font-variant-numeric:normal;font-feature-settings:normal;text-align:start;letter-spacing:0px;word-spacing:0px;writing-mode:lr-tb;text-anchor:start;display:inline;fill:#000000;fill-opacity:1;stroke:none;stroke-width:1.85618472"
       id="LetterA"
       inkscape:connector-curvature="0" />
    <path
       d="m 170.5061,12.683369 q -0.1216,-2.29536 1.062,-3.6772001 1.18392,-1.38176 3.16944,-1.4844 4.28448,-0.2216 7.84352,4.3112001 3.594,4.5308 3.984,11.868401 0.428,8.052641 -2.86784,13.731839 -3.29784,5.6416 -7.89576,5.8792 -2.57768,0.1328 -4.26992,-1.47728 -1.6944,-1.64816 -1.82232,-4.0564 l -0.072,-1.31696 q -0.056,-1.0536 -0.004,-1.39592 l -1.50472,2.56816 -1.19552,-0.80608 q 6.25208,-11.831439 12.31304,-12.144639 3.23952,-0.1672 5.13712,2.677601 0.1208,-1.666401 0.04,-3.171601 -0.268,-5.042241 -3.37912,-9.032081 -3.11112,-3.98976 -6.94272,-3.79176 -1.95064,0.1008 -3.59744,1.31792 z m 6.99552,27.78672 q 2.64728,-0.1368 4.62008,-3.1064 2.00568,-3.00904 1.82368,-6.433278 -0.12,-2.25768 -1.40712,-3.47408 -1.25432,-1.255841 -3.27464,-1.151441 -2.68216,0.138401 -4.59528,2.916481 -1.9132,2.77784 -1.7432,5.976318 0.1304,2.44584 1.39632,3.92744 1.26432,1.444 3.18016,1.34496 z m 12.5388,-4.60984 q -3.4836,6.74544 -9.7812,7.86328 l -0.3592,-0.84928 q 5.60384,-1.68568 8.97808,-7.85952 z"
       style="font-style:normal;font-variant:normal;font-weight:normal;font-stretch:normal;font-size:29.73661041px;line-height:18.58538246px;font-family:'French Script MT';-inkscape-font-specification:'French Script MT, Normal';font-variant-ligatures:normal;font-variant-caps:normal;font-variant-numeric:normal;font-feature-settings:normal;text-align:start;letter-spacing:0px;word-spacing:0px;writing-mode:lr-tb;text-anchor:start;display:inline;fill:#000000;fill-opacity:1;stroke:none;stroke-width:1.85618472"
       id="path5305"
       inkscape:connector-curvature="0" />
    <path
       d="m 207.1877,37.124809 q -1.86312,3.71856 -4.21344,5.50024 -2.35232,1.74408 -6.32328,1.94928 -2.89112,0.1496 -4.69592,-1.60616 -1.772,-1.79504 -1.952,-5.18168 -0.048,-0.90312 0.04,-1.92624 -1.162,1.79568 -1.76784,2.88352 l -1.19568,-0.80608 q 4.16032,-7.157678 6.48464,-9.428558 2.32232,-2.308481 4.89992,-2.441681 1.42816,-0.072 2.38176,0.782401 0.98856,0.85448 1.06456,2.2844 0.26,4.891758 -7.4648,10.045198 1.22384,2.65344 4.63744,2.47704 1.63712,-0.0848 3.55464,-1.46656 1.95232,-1.38384 3.45944,-3.91432 z m -13.48432,0.6216 q 5.62024,-3.3468 5.42224,-7.071998 -0.064,-1.12888 -0.6904,-1.81328 -0.5952,-0.6864 -1.57064,-0.636 -1.77648,0.092 -2.9016,1.92336 -1.1252,1.83152 -0.9932,4.315038 0.072,1.35464 0.4008,2.28096 0.3264,0.88872 0.3328,1.0016 z"
       style="font-style:normal;font-variant:normal;font-weight:normal;font-stretch:normal;font-size:29.73661041px;line-height:18.58538246px;font-family:'French Script MT';-inkscape-font-specification:'French Script MT, Normal';font-variant-ligatures:normal;font-variant-caps:normal;font-variant-numeric:normal;font-feature-settings:normal;text-align:start;letter-spacing:0px;word-spacing:0px;writing-mode:lr-tb;text-anchor:start;display:inline;fill:#000000;fill-opacity:1;stroke:none;stroke-width:1.85618472"
       id="path5307"
       inkscape:connector-curvature="0" />
    <path
       d="m 227.29826,36.311929 q -1.8632,3.71856 -4.21344,5.50024 -2.35232,1.74408 -6.32328,1.94928 -2.89112,0.1496 -4.69592,-1.60616 -1.772,-1.79504 -1.952,-5.18168 -0.048,-0.90312 0.04,-1.92624 -1.162,1.79568 -1.76776,2.88352 l -1.19552,-0.80608 q 4.16032,-7.157678 6.48464,-9.428558 2.32232,-2.308481 4.89992,-2.441681 1.42816,-0.072 2.38184,0.7824 0.98848,0.854481 1.06448,2.284401 0.26,4.89176 -7.4648,10.045198 1.22384,2.65344 4.63744,2.47704 1.63712,-0.0848 3.55464,-1.46656 1.95232,-1.38376 3.45944,-3.91432 z m -13.48432,0.6216 q 5.62024,-3.346798 5.42224,-7.071998 -0.056,-1.12888 -0.6904,-1.81328 -0.5952,-0.6864 -1.57064,-0.636 -1.77648,0.092 -2.9016,1.92336 -1.1252,1.83152 -0.9932,4.315038 0.072,1.35464 0.4008,2.28096 0.3264,0.88872 0.3328,1.0016 z"
       style="font-style:normal;font-variant:normal;font-weight:normal;font-stretch:normal;font-size:29.73661041px;line-height:18.58538246px;font-family:'French Script MT';-inkscape-font-specification:'French Script MT, Normal';font-variant-ligatures:normal;font-variant-caps:normal;font-variant-numeric:normal;font-feature-settings:normal;text-align:start;letter-spacing:0px;word-spacing:0px;writing-mode:lr-tb;text-anchor:start;display:inline;fill:#000000;fill-opacity:1;stroke:none;stroke-width:1.85618472"
       id="LetterE"
       inkscape:connector-curvature="0" />
    <path
       d="m 140.83225,37.950409 q -3.8588,6.91576 -7.6904,7.11376 -1.254,0.064 -1.96184,-0.7664 -0.7096,-0.8688 -0.87784,-4.02968 l -0.4576,-8.616958 q -0.1056,-1.9944 -1.25544,-1.93496 -0.5576,0.032 -1.16032,0.5128 -0.568,0.4824 -1.2168,1.42128 -0.6504,0.90144 -1.82952,3.037678 -1.146,2.09672 -1.134,2.32248 l 0.36,6.7732 -3.35528,2.58832 -0.672,-12.64336 q -0.92184,3.02848 -2.95432,6.18984 l -1.12976,-0.88488 q 3.23408,-5.525198 3.91176,-9.861678 l 3.31968,-1.94496 0.372,6.998958 q 2.3308,-4.119998 3.82624,-5.555678 1.49552,-1.43568 3.09784,-1.51848 1.46296,-0.072 2.32416,1.01192 0.86112,1.08744 1.09712,5.527678 l 0.268,5.04224 q 0.108,2.032 0.2872,2.77728 0.2144,0.744 0.9108,0.7072 1.7068,-0.088 4.7888,-5.1904 z"
       style="font-style:normal;font-variant:normal;font-weight:normal;font-stretch:normal;font-size:29.73661041px;line-height:18.58538246px;font-family:'French Script MT';-inkscape-font-specification:'French Script MT, Normal';font-variant-ligatures:normal;font-variant-caps:normal;font-variant-numeric:normal;font-feature-settings:normal;text-align:start;letter-spacing:0px;word-spacing:0px;writing-mode:lr-tb;text-anchor:start;display:inline;fill:#000000;fill-opacity:1;stroke:none;stroke-width:1.85618472"
       id="LetterN"
       inkscape:connector-curvature="0" />
    <g
       id="g5633" />
    <g
       id="g5641" />
  </g>
  <path
     style="fill:none;stroke:#00df00;stroke-width:2.11999989;stroke-linecap:butt;stroke-linejoin:miter;stroke-miterlimit:4;stroke-dasharray:none;stroke-opacity:1"
     d="m 213.81392,37.468069 c -2.64462,1.632568 10.49186,-5.035032 6.69432,-9.874952 -3.38842,-4.318513 -9.7538,3.686958 -8.84834,10.404588 0.38896,2.885536 3.74194,4.797284 6.07804,4.614284 4.63696,-0.36324 9.60554,-5.844568 9.56032,-6.30006 v 0 0"
     id="path4500"
     inkscape:connector-curvature="0"
     sodipodi:nodetypes="csssccc" />
</svg>
