<?xml version="1.0" encoding="UTF-8" standalone="no"?>
<!-- Created with Inkscape (http://www.inkscape.org/) -->

<svg
   xmlns:dc="http://purl.org/dc/elements/1.1/"
   xmlns:cc="http://creativecommons.org/ns#"
   xmlns:rdf="http://www.w3.org/1999/02/22-rdf-syntax-ns#"
   xmlns:svg="http://www.w3.org/2000/svg"
   xmlns="http://www.w3.org/2000/svg"
   xmlns:sodipodi="http://sodipodi.sourceforge.net/DTD/sodipodi-0.dtd"
   xmlns:inkscape="http://www.inkscape.org/namespaces/inkscape"
   id="MainTitleSVG"
   width="400"
   height="400"
   viewBox="0 0 400 400"
   version="1.1"
   sodipodi:docname="Title.svg"
   inkscape:version="0.92.0 r15299">
  <metadata
     id="metadata3696">
    <rdf:RDF>
      <cc:Work
         rdf:about="">
        <dc:format>image/svg+xml</dc:format>
        <dc:type
           rdf:resource="http://purl.org/dc/dcmitype/StillImage" />
      </cc:Work>
    </rdf:RDF>
  </metadata>
  <defs
     id="defs3694" />
  <sodipodi:namedview
     pagecolor="#ffffff"
     bordercolor="#666666"
     borderopacity="1"
     objecttolerance="10"
     gridtolerance="10"
     guidetolerance="10"
     inkscape:pageopacity="0"
     inkscape:pageshadow="2"
     inkscape:window-width="1280"
     inkscape:window-height="961"
     id="namedview3692"
     showgrid="false"
     inkscape:zoom="256"
     inkscape:cx="4.0070321"
     inkscape:cy="392.09026"
     inkscape:window-x="-8"
     inkscape:window-y="12"
     inkscape:window-maximized="1"
     inkscape:current-layer="MainTitleSVG" />
  <g
     id="LetterB">
    <path
       class="parts part-2"
       d="m 6.4288127,5.1598991 q 1.13291,0.28576 1.19965,1.54163 0.0413,0.7761 -0.31166,1.36503 -0.35317,0.5842402 -0.87131,0.6110102 -0.56603,0.0293 -0.83811,-0.48965 0.0782,-0.0889 0.41245,-0.2901602 0.0368,0.0358 0.047,0.0636 0.12515,0.4651902 0.51702,0.4449402 0.31349,-0.0162 0.50885,-0.3658902 0.1951,-0.35439 0.16535,-0.91412 -0.0388,-0.72906 -0.4367,-1.15185 -0.39385,-0.42771 -1.00342,-0.39621 l -0.0219,-0.0838 q 0.36185,-0.17434 0.56391,-0.56211 0.20642,-0.38799 0.18442,-0.8019 -0.0323,-0.60677 -0.49041,-1.0123 -0.45381,-0.40575 -1.07645,-0.37357 -0.93178,0.0482 -1.64169,0.82062 -0.70555,0.77223 -0.65656,1.69414 0.0235,0.44214 0.22523,0.70528 0.20147,0.25843 0.49755,0.24313 0.34833,-0.018 0.62052,-0.56504 l 0.0944,0.0517 q -0.11273,0.42559 -0.36198,0.66487 -0.24925,0.23927 -0.5671,0.2557 -0.34397,0.0178 -0.57233,-0.25341 -0.22399,-0.27142 -0.24774,-0.71827 -0.0388,-0.72905 0.35306,-1.4898 0.39181,-0.76074 1.08214,-1.24449 0.69443,-0.48867 1.47817,-0.52917 0.70972,-0.0367 1.15382,0.35071 0.4482,0.38246 0.4837,1.05037 0.04,0.75258 -0.48994,1.37896 z"
       style="font-style:normal;font-variant:normal;font-weight:normal;font-stretch:normal;font-size:29.73661041px;line-height:18.58538246px;font-family:'French Script MT';-inkscape-font-specification:'French Script MT, Normal';font-variant-ligatures:normal;font-variant-caps:normal;font-variant-numeric:normal;font-feature-settings:normal;text-align:start;letter-spacing:0px;word-spacing:0px;writing-mode:lr-tb;text-anchor:start;display:inline;fill:#000000;fill-opacity:1;stroke:none;stroke-width:0.23202309"
       id="path3680"
       inkscape:connector-curvature="0" />
    <path
       id="LetterBDraw"
       class="parts part-1"
       d="m 5.6416227,3.3281191 q -0.27369,0.51881 -0.24169,1.12088 0.017,0.31984 0.14368,0.97833 0.13104,0.65825 0.14904,0.99692 0.052,0.97834 -0.44395,1.66901 -0.49596,0.6906602 -1.27099,0.7307102 -0.50508,0.0261 -0.85734,-0.27642 -0.35227,-0.30252 -0.44858,-0.8823902 0.23298,-0.13467 0.55914,-0.24114 l 0.0209,0.0649 q -0.0861,0.18839 -0.0753,0.39065 0.0165,0.3104402 0.25977,0.5336902 0.24327,0.22325 0.5916,0.20525 0.5312,-0.0275 0.86634,-0.5400002 0.3395,-0.51278 0.29575,-1.33591 -0.0138,-0.2587 -0.0843,-0.76444 -0.0705,-0.50574 -0.0838,-0.75504 -0.0647,-1.21823 0.54602,-1.96671 z"
       style="font-style:normal;font-variant:normal;font-weight:normal;font-stretch:normal;font-size:29.73661041px;line-height:18.58538246px;font-family:'French Script MT';-inkscape-font-specification:'French Script MT, Normal';font-variant-ligatures:normal;font-variant-caps:normal;font-variant-numeric:normal;font-feature-settings:normal;text-align:start;letter-spacing:0px;word-spacing:0px;writing-mode:lr-tb;text-anchor:start;display:inline;opacity:0;fill:#00b100;fill-opacity:1;stroke:none;stroke-width:0.23202309"
       inkscape:connector-curvature="0" />
    <g
       class="draw-parts"
       id="g4628">
      <path
         d="M 2.7537091,7.6400606 C 2.885846,8.0563583 2.9091608,8.1821605 3.0763448,8.3659256 3.3548315,8.6720323 3.6835074,8.76971 4.018947,8.7265102 4.3614758,8.6823974 4.7235313,8.5374778 4.9539928,8.2802631 5.1544068,8.0565841 5.3506068,7.7888472 5.4565017,7.4974019 5.5751636,7.1708194 5.5863211,6.8107673 5.5878866,6.4632988 5.5891149,6.1906564 5.5300785,5.9209787 5.4921103,5.6509902 5.4436196,5.3061776 5.3209073,4.9682569 5.3235583,4.6200614 c 0.00348,-0.456595 0.241584,-1.3483536 0.241584,-1.3483536"
         style="opacity:1;fill:none;stroke:#000000;stroke-width:0.2;stroke-linecap:butt;stroke-linejoin:miter;stroke-miterlimit:4;stroke-dasharray:none;stroke-opacity:1"
         class="draw"
         id="path4503"
         inkscape:connector-curvature="0" />
      <path
         d="m 2.9611745,7.5667105 c 0,0 -0.036326,0.6292918 0.177182,0.7992151 C 3.3898222,8.5660579 3.6978594,8.7874619 4.018947,8.7265102 4.5599668,8.623809 5.0060443,8.1252857 5.2609352,7.6371458 5.4586121,7.2585759 5.409776,6.7909381 5.4037212,6.363908 5.4002072,6.1160721 5.3246387,5.8742308 5.2999348,5.6276041 5.2661267,5.2900865 5.2090959,4.9496537 5.2392853,4.6117932 5.28066,4.1487531 5.5679127,3.2564091 5.5679127,3.2564091"
         style="opacity:1;fill:none;fill-opacity:1;stroke:#000000;stroke-width:0.2;stroke-linecap:butt;stroke-linejoin:miter;stroke-miterlimit:4;stroke-dasharray:none;stroke-opacity:1"
         class="draw main"
         id="path4523"
         inkscape:connector-curvature="0" />
      <path
         id="path4501"
         class="draw"
         d="m 3.1181144,7.4986916 c 0.053743,0.05607 0.00785,0.097017 0.011234,0.1455654 0.011777,0.1691308 -0.022454,0.3921627 0.031525,0.5076431 0.078405,0.1677373 0.1582863,0.287558 0.2903792,0.3738875 0.1880569,0.1229045 0.4314925,0.1995586 0.65347,0.1649656 C 4.419223,8.6417414 4.7036637,8.4239158 4.9155417,8.1863861 5.0379706,8.0491351 5.1025103,7.8649536 5.1517752,7.6877541 5.2462602,7.3479042 5.2728517,6.9957817 5.25732,6.6348111 5.2382047,6.1905528 5.1725165,5.9490818 5.1425944,5.6049796 5.1199922,5.3450558 5.063578,5.0829577 5.0936809,4.8237955 5.1154641,4.6362594 5.131197,4.3568288 5.1941295,4.132717 5.2799838,3.8269773 5.5679127,3.2564091 5.5679127,3.2564091"
         style="opacity:1;fill:none;stroke:#000000;stroke-width:0.15000001;stroke-linecap:butt;stroke-linejoin:miter;stroke-miterlimit:4;stroke-dasharray:none;stroke-opacity:1"
         inkscape:connector-curvature="0" />
		 <path
       style="opacity:1;fill:none;stroke:#000000;stroke-width:0.15000001;stroke-linecap:butt;stroke-linejoin:miter;stroke-miterlimit:4;stroke-dasharray:none;stroke-opacity:1"
       d="M 2.691324,7.7237529 3.1796876,7.5039062 v 0"
	   class="start"
     inkscape:connector-curvature="0" />
      <path
         style="opacity:1;fill:#00000;fill-opacity:1;fill-rule:evenodd;stroke:none;stroke-width:0.52466911;stroke-linecap:butt;stroke-linejoin:miter;stroke-miterlimit:4;stroke-dasharray:none;stroke-dashoffset:0;stroke-opacity:1;paint-order:fill markers stroke"
         d="M 3.2518327,7.774173 A 0.21181254,0.27698563 0 0 1 3.0400202,8.0511586 0.21181254,0.27698563 0 0 1 2.8282076,7.774173 0.21181254,0.27698563 0 0 1 3.0400202,7.4971874 0.21181254,0.27698563 0 0 1 3.2518327,7.774173 Z"
         id="circle"
         class="draw marker"
         inkscape:connector-curvature="0" />
    </g>
  </g>
  
</svg>
